<svg width="26" height="27" viewBox="0 0 26 27" fill="none" xmlns="http://www.w3.org/2000/svg">
<g clip-path="url(#clip0)">
<path d="M6.10156 5.9V1.9C6.10156 1.1 6.80156 0.5 7.60156 0.5H19.5016C20.3016 0.5 25.1016 7.3 25.1016 8.1V25.1C25.1016 25.9 24.4016 26.5 23.6016 26.5H7.60156C6.80156 26.5 6.10156 25.9 6.10156 25.1V21.4" fill="white"/>
<path d="M6.10156 5.9V1.9C6.10156 1.1 6.80156 0.5 7.60156 0.5H19.5016C20.3016 0.5 25.1016 7.3 25.1016 8.1V25.1C25.1016 25.9 24.4016 26.5 23.6016 26.5H7.60156C6.80156 26.5 6.10156 25.9 6.10156 25.1V21.4" stroke="#CBA552" stroke-miterlimit="10"/>
<path d="M3.70156 7.5V13.5H1.10156L6.00156 19.5L11.1016 13.5H8.50156V7.5H3.70156Z" stroke="#CBA552" stroke-miterlimit="10"/>
<path d="M19.2016 0.5C19.1016 0.6 19.1016 0.8 19.1016 1V7C19.1016 7.8 19.9016 8.5 21.0016 8.5H25.0016" stroke="#CBA552" stroke-miterlimit="10"/>
<path d="M13.6016 16H22.6016" stroke="#CBA552" stroke-miterlimit="10"/>
<path d="M11.1016 11H22.6016" stroke="#CBA552" stroke-miterlimit="10"/>
<path d="M9.60156 20.6001H22.6016" stroke="#CBA552" stroke-miterlimit="10"/>
</g>
<defs>
<clipPath id="clip0">
<rect width="25.6" height="27" fill="white"/>
</clipPath>
</defs>
</svg>
