<svg id="Layer_1" data-name="Layer 1" xmlns="http://www.w3.org/2000/svg" viewBox="0 0 169.08 180.34"><defs><style>.cls-1{fill:#231f20;fill-rule:evenodd;}</style></defs><path class="cls-1" d="M142.67,52.83h-5.28V47.55a26.42,26.42,0,0,0-48-15.29,21.4,21.4,0,0,0-11.93.64A31.69,31.69,0,0,0,21.15,52.83H15.86a5.29,5.29,0,0,0-5.28,5.29V79.25a5.28,5.28,0,0,0,5.28,5.28h5.83l.78,7.06c-9.25,9-17.3,20.5-20.76,32.62C-1.67,136,0,146.05,6.41,152.46c6.13,6.13,14.86,7.31,23.41,5.82l.88,8a15.83,15.83,0,0,0,15.75,14.1h65.62a15.84,15.84,0,0,0,15.76-14.1l9-81.71h5.83A5.28,5.28,0,0,0,148,79.25V58.12A5.29,5.29,0,0,0,142.67,52.83ZM84.55,42.26A10.49,10.49,0,0,1,92,45.36a5.29,5.29,0,1,0,7.47-7.48c-.2-.2-.41-.39-.62-.58a15.86,15.86,0,0,1,27.95,10.25v5.28H74A10.57,10.57,0,0,1,84.55,42.26ZM52.85,31.7a21.19,21.19,0,0,1,15.84,7.16,21,21,0,0,0-5.28,14V79.25a5.6,5.6,0,0,1-5.28,5.63,5.61,5.61,0,0,1-5.28-5.63V58.12a5.29,5.29,0,0,0-5.29-5.29H31.71A21.16,21.16,0,0,1,52.85,31.7ZM13.88,145c-3.53-3.52-4.26-10-2-17.87,2.05-7.18,6.29-14.72,12.14-21.7l4.66,42.33C22.22,149,16.93,148,13.88,145Zm7.27-71V63.4H42.28V74Zm96.17,91.11a5.27,5.27,0,0,1-5.25,4.69H46.45a5.27,5.27,0,0,1-5.25-4.69l-1.08-9.81c17-6.83,33.19-22.32,41.49-38.69h8.23a5.28,5.28,0,1,0,0-10.56H68.69a5.28,5.28,0,0,0,0,10.56h.79c-7,11.2-18.39,22-30.57,27.71L32.32,84.53H43.16a15.72,15.72,0,0,0,29.94,0h53.1ZM137.39,74H74V63.4h63.41Z"/><path class="cls-1" d="M153.24,0a15.85,15.85,0,1,0,15.84,15.85A15.86,15.86,0,0,0,153.24,0Zm0,21.13a5.28,5.28,0,1,1,5.28-5.28A5.29,5.29,0,0,1,153.24,21.13Z"/></svg>