<svg width="26" height="26" viewBox="0 0 26 26" fill="none" xmlns="http://www.w3.org/2000/svg">
<mask id="path-1-inside-1" fill="white">
<path fill-rule="evenodd" clip-rule="evenodd" d="M12.8861 9.16568C12.8012 9.07112 12.713 8.97836 12.6215 8.88757C10.1845 6.46776 6.37129 6.35679 4.10452 8.6397C1.83774 10.9226 1.97576 14.7349 4.4128 17.1547C4.50424 17.2455 4.59762 17.3331 4.69278 17.4174L4.68494 17.4253L12.7718 25.455L20.8802 17.2889C20.9047 17.2649 20.9291 17.2406 20.9534 17.2161C23.4397 14.7122 23.6449 10.8848 21.4118 8.66743C19.1869 6.4583 15.3812 6.68076 12.8942 9.15869L12.8937 9.1581L12.8861 9.16568Z"/>
</mask>
<path d="M12.8861 9.16568L11.3984 10.5024L12.8135 12.0773L14.3053 10.5749L12.8861 9.16568ZM4.69278 17.4174L6.112 18.8265L7.60385 17.3241L6.01888 15.9202L4.69278 17.4174ZM4.68494 17.4253L3.26571 16.0161L1.85653 17.4353L3.27575 18.8445L4.68494 17.4253ZM12.7718 25.455L11.3626 26.8742L12.7818 28.2834L14.191 26.8642L12.7718 25.455ZM20.8802 17.2889L19.481 15.8598L19.4709 15.8697L19.461 15.8797L20.8802 17.2889ZM12.8942 9.15869L11.4851 10.5779L12.8967 11.9796L14.3059 10.5755L12.8942 9.15869ZM12.8937 9.1581L14.3028 7.73888L12.8836 6.32969L11.4744 7.74891L12.8937 9.1581ZM11.2123 10.3068C11.2768 10.3708 11.3388 10.436 11.3984 10.5024L14.3738 7.829C14.2635 7.70619 14.1491 7.58591 14.0307 7.46835L11.2123 10.3068ZM5.52374 10.0489C6.92694 8.6357 9.47035 8.57712 11.2123 10.3068L14.0307 7.46835C10.8986 4.3584 5.81565 4.07787 2.6853 7.23051L5.52374 10.0489ZM5.82198 15.7355C4.08 14.0058 4.12054 11.4621 5.52374 10.0489L2.6853 7.23051C-0.445054 10.3831 -0.128477 15.464 3.00361 18.5739L5.82198 15.7355ZM6.01888 15.9202C5.95213 15.8611 5.88646 15.7995 5.82198 15.7355L3.00361 18.5739C3.12201 18.6915 3.2431 18.805 3.36668 18.9145L6.01888 15.9202ZM3.27356 16.0082L3.26571 16.0161L6.10416 18.8344L6.112 18.8265L3.27356 16.0082ZM3.27575 18.8445L11.3626 26.8742L14.181 24.0357L6.09412 16.006L3.27575 18.8445ZM14.191 26.8642L22.2994 18.6981L19.461 15.8797L11.3526 24.0458L14.191 26.8642ZM22.2794 18.7179C22.3106 18.6874 22.3417 18.6565 22.3726 18.6253L19.5342 15.807C19.5166 15.8247 19.4988 15.8423 19.481 15.8598L22.2794 18.7179ZM22.3726 18.6253C25.4812 15.4947 25.9863 10.3912 22.821 7.2482L20.0026 10.0866C21.3035 11.3784 21.3982 13.9297 19.5342 15.807L22.3726 18.6253ZM22.821 7.2482C19.6676 4.11715 14.5929 4.64283 11.4826 7.74192L14.3059 10.5755C16.1694 8.71869 18.7063 8.79945 20.0026 10.0866L22.821 7.2482ZM14.3034 7.73947L14.3028 7.73888L11.4845 10.5773L11.4851 10.5779L14.3034 7.73947ZM11.4744 7.74891L11.4669 7.75649L14.3053 10.5749L14.3129 10.5673L11.4744 7.74891Z" fill="#CBA552" mask="url(#path-1-inside-1)"/>
</svg>
