<svg id="Layer_1" data-name="Layer 1" xmlns="http://www.w3.org/2000/svg" viewBox="0 0 178.46 178.46"><defs><style>.cls-1{fill:#231f20;fill-rule:evenodd;}</style></defs><path class="cls-1" d="M176.9,74.7a5.25,5.25,0,0,0-7.4,0l-49.64,50.34L53.37,58.59,103.7,9a5.23,5.23,0,1,0-7.34-7.44C-28.23,124.39,107.17-9.19,27.47,69.65a26.13,26.13,0,0,0,0,37l11.08,11.08-34,34a15.68,15.68,0,1,0,22.18,22.17l34-34L71.84,151a26.12,26.12,0,0,0,37,0c15.2-15.2,6.88-6.71,68.15-68.89A5.23,5.23,0,0,0,176.9,74.7ZM79.22,143.6,64.44,128.81a5.24,5.24,0,0,0-7.4,0L19.37,166.48a5.23,5.23,0,0,1-7.38-7.4l37.66-37.67a5.23,5.23,0,0,0,0-7.39L34.86,99.23a15.71,15.71,0,0,1-3.07-17.86l65.29,65.3A15.72,15.72,0,0,1,79.22,143.6Zm25.88-3.7L38.55,73.35,46,66,112.5,132.5Z"/><path class="cls-1" d="M131.41,31.37a15.7,15.7,0,0,1,15.68,15.69,5.23,5.23,0,1,0,10.45,0,15.7,15.7,0,0,1,15.69-15.69,5.23,5.23,0,1,0,0-10.46A15.71,15.71,0,0,1,157.54,5.23a5.23,5.23,0,1,0-10.45,0,15.71,15.71,0,0,1-15.68,15.68,5.23,5.23,0,1,0,0,10.46ZM152.32,20.9a26,26,0,0,0,5.24,5.24,26.33,26.33,0,0,0-5.24,5.25,26.38,26.38,0,0,0-5.25-5.25A26.33,26.33,0,0,0,152.32,20.9Z"/><path class="cls-1" d="M103.73,32.91a5.22,5.22,0,0,0-7.4,0L75.42,53.82a5.23,5.23,0,0,0,7.4,7.39L103.73,40.3A5.23,5.23,0,0,0,103.73,32.91Z"/><path class="cls-1" d="M138.16,74.73,117.24,95.65a5.23,5.23,0,0,0,7.4,7.38l20.91-20.91a5.23,5.23,0,1,0-7.39-7.39Z"/><path class="cls-1" d="M96.33,82.12a5.24,5.24,0,0,0,7.4,0l20.91-20.91a5.23,5.23,0,0,0-7.4-7.39L96.33,74.73A5.23,5.23,0,0,0,96.33,82.12Z"/></svg>