<?xml version="1.0" standalone="no"?>
<!DOCTYPE svg PUBLIC "-//W3C//DTD SVG 1.1//EN" "http://www.w3.org/Graphics/SVG/1.1/DTD/svg11.dtd" >
<svg xmlns="http://www.w3.org/2000/svg" xmlns:xlink="http://www.w3.org/1999/xlink" version="1.1">
<metadata>
Created by FontForge 20190801 at Mon Apr 30 12:30:51 2007
 By www-data
Copyright 1990 as an unpublished work by Bitstream Inc.  All rights reserved.  Confidential.
</metadata>
<defs>
<font id="avantgardeitcbybtdemiopentype_bigfontsite_com" horiz-adv-x="500" >
  <font-face 
    font-family="avantgardeitcbybtdemiopentype_bigfontsite_com"
    font-weight="700"
    font-stretch="normal"
    units-per-em="1000"
    panose-1="0 0 0 0 0 0 0 0 0 0"
    ascent="800"
    descent="-200"
    x-height="537"
    cap-height="711"
    bbox="-167 -236 1254 956"
    underline-thickness="95"
    underline-position="-141"
    unicode-range="U+0020-FB02"
  />
<missing-glyph horiz-adv-x="291" 
 />
    <glyph glyph-name=".notdef" horiz-adv-x="291" 
 />
    <glyph glyph-name=".null" horiz-adv-x="0" 
 />
    <glyph glyph-name="nonmarkingreturn" horiz-adv-x="333" 
 />
    <glyph glyph-name="space" unicode=" " horiz-adv-x="291" 
 />
    <glyph glyph-name="exclam" unicode="!" horiz-adv-x="306" 
d="M215 0h-125v134h125v-134zM215 194h-125v517h125v-517z" />
    <glyph glyph-name="quotedbl" unicode="&#x22;" horiz-adv-x="314" 
d="M42 701h80v-272h-80v272zM193 701h80v-272h-80v272z" />
    <glyph glyph-name="numbersign" unicode="#" horiz-adv-x="769" 
d="M359 713h93l-75 -213h122l76 213h93l-75 -213h142l-29 -84h-143l-44 -123h151l-30 -84h-150l-76 -212h-93l76 212h-123l-77 -212h-93l76 212h-146l30 84h145l44 123h-154l30 84h154zM346 416l-44 -124h125l44 124h-125z" />
    <glyph glyph-name="dollar" unicode="$" horiz-adv-x="581" 
d="M203 221q3 -93 87 -93q38 0 60.5 24.5t22.5 64.5q0 44 -24.5 62.5t-87.5 37.5q-86 26 -127 70.5t-41 117.5q0 72 38 123.5t109 73.5v107h116v-108q130 -34 138 -183h-122q-1 31 -22.5 50t-53.5 19q-37 0 -59.5 -21.5t-22.5 -56.5q0 -26 17 -40q14 -12 34.5 -19.5
t52.5 -15.5t51 -14q68 -23 104.5 -72t36.5 -116q0 -171 -154 -220v-128h-116v122q-80 19 -123.5 75t-44.5 140h131z" />
    <glyph glyph-name="percent" unicode="%" horiz-adv-x="877" 
d="M482 161q0 73 51 124t124 51t124 -51t51 -124t-51 -124t-124 -51t-124 51t-51 124zM575 161q0 -35 23.5 -58.5t58.5 -23.5t58.5 23.5t23.5 58.5t-23.5 58.5t-58.5 23.5t-58.5 -23.5t-23.5 -58.5zM590 725h79l-380 -740h-79zM137 550q0 -34 23.5 -57.5t58.5 -23.5
t58.5 23.5t23.5 57.5t-23.5 58t-58.5 24t-58.5 -24t-23.5 -58zM44 550q0 72 52 124q51 51 123 51q73 0 124 -51q52 -52 52 -124t-52 -124q-51 -51 -124 -51q-72 0 -123 51q-52 52 -52 124z" />
    <glyph glyph-name="ampersand" unicode="&#x26;" horiz-adv-x="651" 
d="M242 469q63 33 63 81q0 24 -17 42t-41 18q-25 0 -41.5 -16.5t-16.5 -45.5q0 -40 53 -79zM344 200l-118 112q-79 -46 -79 -112q0 -39 25 -65t61 -26q70 0 111 91zM436 119q-71 -134 -201 -134q-89 0 -150 62t-61 152q0 115 126 204q-40 39 -58 71.5t-18 72.5
q0 75 51.5 126.5t126.5 51.5q66 0 115 -50t49 -118q0 -94 -107 -162l101 -94l66 172h126l-101 -249l162 -141l-84 -94z" />
    <glyph glyph-name="quotesingle" unicode="'" horiz-adv-x="163" 
d="M42 701h80v-272h-80v272z" />
    <glyph glyph-name="parenleft" unicode="(" horiz-adv-x="296" 
d="M257 725v-135q-49 -32 -65 -76t-16 -119v-281q0 -75 16 -119t65 -76v-135q-211 74 -211 298v345q0 224 211 298z" />
    <glyph glyph-name="parenright" unicode=")" horiz-adv-x="296" 
d="M39 725q211 -74 211 -298v-345q0 -224 -211 -298v135q49 32 65 76t16 119v281q0 75 -16 119t-65 76v135z" />
    <glyph glyph-name="asterisk" unicode="*" 
d="M249 443l-87 -123l-71 49l95 121l-140 39l26 83l135 -45v144h84v-144l133 45l30 -83l-141 -38l93 -122l-70 -51z" />
    <glyph glyph-name="plus" unicode="+" horiz-adv-x="833" 
d="M375 596h83v-257h251v-81h-251v-258h-83v258h-251v81h251v257z" />
    <glyph glyph-name="comma" unicode="," horiz-adv-x="291" 
d="M208 134v-127q0 -69 -29.5 -101.5t-95.5 -33.5v72q23 3 32 14.5t9 36.5v5h-41v134h125z" />
    <glyph glyph-name="hyphen" unicode="-" horiz-adv-x="340" 
d="M296 326v-115h-252v115h252z" />
    <glyph glyph-name="period" unicode="." horiz-adv-x="291" 
d="M208 0h-125v134h125v-134z" />
    <glyph glyph-name="slash" unicode="/" horiz-adv-x="278" 
d="M46 -93h-68l233 804h67z" />
    <glyph glyph-name="zero" unicode="0" horiz-adv-x="581" 
d="M42 462q0 57 8.5 95t35.5 73q73 95 205 95q127 0 206 -97q42 -52 42 -168v-211q0 -57 -8.5 -95.5t-35.5 -73.5q-72 -94 -205 -94q-127 0 -206 97q-42 52 -42 167v212zM181 463v-214q0 -136 109 -136q57 0 83.5 34.5t26.5 105.5v206v14q0 51 -12 72q-31 53 -97 53
q-110 0 -110 -135z" />
    <glyph glyph-name="one" unicode="1" horiz-adv-x="581" 
d="M380 0h-134v606h-124v105h258v-711z" />
    <glyph glyph-name="two" unicode="2" horiz-adv-x="581" 
d="M522 0h-469v133l258 241q74 69 74 131q0 40 -25.5 66t-66.5 26q-43 0 -66.5 -27.5t-23.5 -78.5v-12h-140v2q0 110 64.5 176.5t168.5 66.5q98 0 163.5 -64.5t65.5 -155.5q0 -100 -106 -196l-199 -180h302v-128z" />
    <glyph glyph-name="three" unicode="3" horiz-adv-x="581" 
d="M56 228h133v-5q0 -50 27 -80t70 -30q48 0 78 33.5t30 88.5q0 111 -132 111q-3 0 -9.5 -0.5t-10.5 -0.5v118q4 0 10 -0.5t9 -0.5q44 0 65 17.5t21 55.5q0 31 -16 48.5t-45 17.5q-53 0 -56 -68h-123q0 87 51.5 139.5t135.5 52.5q75 0 127 -52.5t52 -124.5q0 -85 -70 -133
q121 -54 121 -192q0 -90 -60 -159q-37 -42 -77 -60t-97 -18q-110 0 -172 63.5t-62 175.5v3z" />
    <glyph glyph-name="four" unicode="4" horiz-adv-x="581" 
d="M477 0h-122v108h-312v118l307 485h127v-485h60v-118h-60v-108zM355 226v297l-189 -297h189z" />
    <glyph glyph-name="five" unicode="5" horiz-adv-x="581" 
d="M469 711v-123h-244l-22 -122q44 25 98 25q98 0 167 -73t69 -177q0 -95 -64 -168q-76 -88 -190 -88q-100 0 -170 65.5t-79 170.5h134q6 -48 38 -77.5t76 -29.5q49 0 81.5 36t32.5 92q0 55 -32.5 89t-86.5 34q-65 0 -93 -51l-118 27l68 370h335z" />
    <glyph glyph-name="six" unicode="6" horiz-adv-x="581" 
d="M295 711h145l-161 -243q33 7 54 7q87 0 148 -69t61 -170q0 -90 -61 -162q-74 -87 -191 -87q-105 0 -177 72q-73 73 -73 169q0 61 24.5 116t75.5 132zM174 241q0 -54 34.5 -90.5t81.5 -36.5q50 0 83 34t33 89q0 54 -32.5 88.5t-81.5 34.5t-83.5 -35.5t-34.5 -83.5z" />
    <glyph glyph-name="seven" unicode="7" horiz-adv-x="581" 
d="M253 0h-142l265 586h-278v125h407v-132z" />
    <glyph glyph-name="eight" unicode="8" horiz-adv-x="581" 
d="M166 397q-80 49 -80 140q0 76 58.5 132t143.5 56q90 0 148.5 -55t58.5 -134q0 -91 -83 -139q116 -59 116 -180q0 -101 -66.5 -166t-174.5 -65q-100 0 -167 66.5t-67 164.5q0 112 113 180zM192 211q0 -44 28 -73t68 -29q44 0 72 29t28 74q0 47 -27.5 75t-73.5 28
q-43 0 -69 -28t-26 -76zM224 532q0 -30 18 -49.5t48 -19.5q31 0 49 19t18 52q0 32 -18.5 51.5t-47.5 19.5t-48 -20t-19 -53z" />
    <glyph glyph-name="nine" unicode="9" horiz-adv-x="581" 
d="M287 0h-145l161 242q-33 -7 -54 -7q-87 0 -148 69.5t-61 170.5q0 89 61 161q75 88 191 88q105 0 177 -72q73 -73 73 -170q0 -61 -24.5 -116t-75.5 -132zM408 469q0 54 -34.5 91t-81.5 37q-50 0 -83 -34.5t-33 -89.5q0 -54 32.5 -88.5t81.5 -34.5t83.5 35.5t34.5 83.5z
" />
    <glyph glyph-name="colon" unicode=":" horiz-adv-x="306" 
d="M215 0h-125v134h125v-134zM215 380h-125v134h125v-134z" />
    <glyph glyph-name="semicolon" unicode=";" horiz-adv-x="306" 
d="M215 380h-125v134h125v-134zM215 134v-127q0 -69 -29.5 -101.5t-95.5 -33.5v72q24 3 33 14.5t9 36.5v5h-42v134h125z" />
    <glyph glyph-name="less" unicode="&#x3c;" horiz-adv-x="833" 
d="M704 574v-90l-456 -186l456 -186v-89l-575 236v78z" />
    <glyph glyph-name="equal" unicode="=" horiz-adv-x="833" 
d="M124 440h585v-82h-585v82zM124 238h585v-81h-585v81z" />
    <glyph glyph-name="greater" unicode="&#x3e;" horiz-adv-x="833" 
d="M129 574l575 -237v-78l-575 -236v89l456 186l-456 186v90z" />
    <glyph glyph-name="question" unicode="?" horiz-adv-x="509" 
d="M189 0v134h125v-134h-125zM189 194q0 88 66 171q7 9 31 33t37 41q17 23 17 59q0 48 -24.5 74.5t-68.5 26.5q-38 0 -61.5 -28t-24.5 -77h-131q1 103 64.5 167t160.5 64q98 0 162 -62t64 -157q0 -20 -2.5 -36.5t-8.5 -31t-11 -24t-16.5 -22t-16.5 -18t-20 -19t-19 -17.5
q-36 -34 -54 -66.5t-19 -77.5h-125z" />
    <glyph glyph-name="at" unicode="@" horiz-adv-x="1000" 
d="M602 345q-14 86 -90 86q-62 0 -106 -62.5t-44 -151.5q0 -48 22 -74t63 -26q43 0 79 32.5t49 84.5zM573 138q-52 -82 -148 -82q-74 0 -113.5 42t-39.5 122q0 115 68 193.5t162 78.5q84 0 121 -69l27 52h75l-72 -286q-4 -20 -4 -24q0 -19 13 -30t34 -11q53 0 104 56
q72 77 72 192q0 123 -90.5 200.5t-239.5 77.5q-135 0 -230 -61q-89 -56 -136.5 -142.5t-47.5 -192.5q0 -152 102.5 -243.5t272.5 -91.5q167 0 300 93l33 -48q-147 -111 -329 -111q-189 0 -309 93q-150 114 -150 309q0 163 100 286q146 178 397 178q170 0 278 -84
q129 -99 129 -262q0 -164 -122 -263q-69 -55 -155 -55q-102 0 -102 81v2z" />
    <glyph glyph-name="A" unicode="A" horiz-adv-x="602" 
d="M162 149l-55 -149h-144l276 711h120l272 -711h-149l-56 149h-264zM380 281l-84 229l-86 -229h170z" />
    <glyph glyph-name="B" unicode="B" horiz-adv-x="514" 
d="M62 0v711h106h47q82 0 122 -16q121 -50 121 -174q0 -101 -73 -138q53 -16 83 -60.5t30 -105.5q0 -106 -70 -166q-37 -31 -79.5 -41t-108.5 -10h-178zM196 125h42q123 0 123 87q0 98 -123 98h-42v-185zM196 425h16q114 0 114 83q0 78 -110 78h-20v-161z" />
    <glyph glyph-name="C" unicode="C" horiz-adv-x="752" 
d="M727 500h-170q-60 82 -167 82q-89 0 -150 -63q-66 -68 -66 -161q0 -98 63 -164t153 -66q108 0 162 76h170q-99 -218 -331 -218q-161 0 -269 122q-92 103 -92 252q0 151 111 262q105 103 251 103q231 0 335 -225z" />
    <glyph glyph-name="D" unicode="D" horiz-adv-x="685" 
d="M301 0h-242v711h238q90 0 149.5 -18t110.5 -67q102 -99 102 -274q0 -198 -141 -299q-43 -31 -93.5 -42t-123.5 -11zM292 122q115 0 170 56.5t55 177.5q0 111 -60 172.5t-167 61.5h-91v-468h93z" />
    <glyph glyph-name="E" unicode="E" 
d="M443 0h-384v711h384v-125h-246v-162h246v-123h-246v-176h246v-125z" />
    <glyph glyph-name="F" unicode="F" horiz-adv-x="481" 
d="M59 0v711h384v-125h-246v-162h246v-123h-246v-301h-138z" />
    <glyph glyph-name="G" unicode="G" horiz-adv-x="787" 
d="M759 378q0 -4 0.5 -12t0.5 -12q0 -91 -34 -159q-50 -100 -136.5 -154.5t-196.5 -54.5q-162 0 -272 122q-93 104 -93 252q0 151 113 262q104 103 261 103q114 0 197.5 -56t129.5 -164h-169q-62 77 -166 77q-91 0 -154.5 -66t-63.5 -160q0 -96 64 -161.5t158 -65.5
q64 0 117.5 35t78.5 95h-279v119h444z" />
    <glyph glyph-name="H" unicode="H" horiz-adv-x="625" 
d="M198 289v-289h-139v711h139v-288h229v288h139v-711h-139v289h-229z" />
    <glyph glyph-name="I" unicode="I" horiz-adv-x="259" 
d="M60 0v711h139v-711h-139z" />
    <glyph glyph-name="J" unicode="J" horiz-adv-x="451" 
d="M393 243q0 -62 -6 -101t-26 -71q-54 -85 -167 -85q-94 0 -144 52.5t-50 153.5h138v-2q0 -30 14.5 -47t40.5 -17q35 0 48 30t13 98v457h139v-468z" />
    <glyph glyph-name="K" unicode="K" horiz-adv-x="556" 
d="M198 0h-139v711h139v-711zM200 353l215 358h155l-228 -353l228 -358h-155z" />
    <glyph glyph-name="L" unicode="L" horiz-adv-x="440" 
d="M420 0h-361v711h138v-586h223v-125z" />
    <glyph glyph-name="M" unicode="M" horiz-adv-x="847" 
d="M197 0h-138v711h184l181 -517l180 517h184v-711h-137l5 516l-180 -516h-105l-180 516z" />
    <glyph glyph-name="N" unicode="N" horiz-adv-x="681" 
d="M196 0h-137v711h132l294 -454v454h136v-711h-129l-296 468v-468z" />
    <glyph glyph-name="O" unicode="O" horiz-adv-x="787" 
d="M28 357q0 117 62 208q53 77 132.5 118.5t173.5 41.5q146 0 254 -106q109 -109 109 -259q0 -156 -103 -262q-107 -112 -262 -112q-160 0 -265 112q-101 107 -101 259zM174 362q0 -92 60 -158q68 -74 160 -74t156 65.5t64 166.5q0 91 -64 155t-153 64q-93 0 -158 -64
t-65 -155z" />
    <glyph glyph-name="P" unicode="P" horiz-adv-x="514" 
d="M198 0h-139v711h177q123 0 169 -31q44 -29 69 -78t25 -105q0 -101 -66.5 -162.5t-182.5 -61.5h-52v-273zM198 393h37q59 0 89.5 25.5t30.5 71.5q0 96 -121 96h-36v-193z" />
    <glyph glyph-name="Q" unicode="Q" horiz-adv-x="787" 
d="M582 39q-83 -54 -192 -54q-122 0 -224 80q-138 110 -138 295q0 151 113 262q105 103 253 103q152 0 258 -104q111 -108 111 -269q0 -139 -87 -232q38 -18 83 -18h14v-113q-3 0 -9 -0.5t-9 -0.5q-85 0 -173 51zM214 227q68 -96 183 -96q42 0 87 18q-123 81 -228 81
q-21 0 -42 -3zM564 217q51 54 51 139q0 97 -64 163t-158 66q-92 0 -156 -67.5t-64 -159.5q0 -18 6 -37q47 15 91 15q153 0 294 -119z" />
    <glyph glyph-name="R" unicode="R" horiz-adv-x="569" 
d="M198 0h-139v711h169q136 0 187 -24q124 -58 124 -198q0 -83 -45 -140t-124 -73l178 -276h-166l-184 330v-330zM198 365h31q172 0 172 120q0 57 -37 83.5t-114 26.5h-52v-230z" />
    <glyph glyph-name="S" unicode="S" horiz-adv-x="479" 
d="M16 221h127v-10q0 -45 23.5 -72t62.5 -27q42 0 66.5 25t24.5 68q0 13 -1 23t-5.5 18.5t-7 14t-11.5 11.5t-12.5 9t-17 8t-18 6.5t-22.5 7t-24 7.5q-163 51 -163 194q0 100 55.5 160.5t147.5 60.5q86 0 137.5 -54t57.5 -151h-126v6q0 34 -20.5 55t-53.5 21
q-34 0 -54 -21.5t-20 -58.5q0 -31 17 -49q13 -14 30.5 -22t52 -17.5t48.5 -14.5q143 -49 143 -190q0 -110 -61 -176.5t-162 -66.5q-95 0 -154 64t-60 171z" />
    <glyph glyph-name="T" unicode="T" horiz-adv-x="419" 
d="M413 711v-125h-134v-586h-139v586h-134v125h407z" />
    <glyph glyph-name="U" unicode="U" horiz-adv-x="576" 
d="M59 711h139v-410q0 -91 19 -131t71 -40t71 40t19 131v410h139v-451q0 -65 -6.5 -105.5t-29.5 -73.5q-65 -95 -193 -95t-193 95q-17 25 -25.5 57t-9.5 54.5t-1 67.5v451z" />
    <glyph glyph-name="V" unicode="V" horiz-adv-x="567" 
d="M333 0h-99l-255 711h149l155 -474l156 474h148z" />
    <glyph glyph-name="W" unicode="W" horiz-adv-x="843" 
d="M-15 711h142l117 -461l129 461h96l129 -461l117 461h142l-206 -711h-111l-119 444l-120 -444h-110z" />
    <glyph glyph-name="X" unicode="X" horiz-adv-x="586" 
d="M293 250l-144 -250h-157l228 359l-222 352h157l138 -247l137 247h157l-221 -352l227 -359h-157z" />
    <glyph glyph-name="Y" unicode="Y" horiz-adv-x="493" 
d="M314 256v-256h-139v256l-204 455h153l123 -306l122 306h152z" />
    <glyph glyph-name="Z" unicode="Z" horiz-adv-x="475" 
d="M460 0h-446v123l281 456h-261v132h419v-114l-286 -465h293v-132z" />
    <glyph glyph-name="bracketleft" unicode="[" horiz-adv-x="296" 
d="M181 600v-689h92v-111h-217v911h217v-111h-92z" />
    <glyph glyph-name="backslash" unicode="\" horiz-adv-x="278" 
d="M232 -93l-232 804h67l232 -804h-67z" />
    <glyph glyph-name="bracketright" unicode="]" horiz-adv-x="296" 
d="M116 600h-93v111h218v-911h-218v111h93v689z" />
    <glyph glyph-name="asciicircum" unicode="^" horiz-adv-x="1000" 
d="M447 713h106l242 -274h-101l-194 194l-195 -194h-101z" />
    <glyph glyph-name="underscore" unicode="_" 
d="M0 -152h500v-84h-500v84z" />
    <glyph glyph-name="grave" unicode="`" 
d="M322 607h-64l-144 170h108z" />
    <glyph glyph-name="a" unicode="a" horiz-adv-x="644" 
d="M469 0v66q-43 -78 -167 -78q-120 0 -199.5 81.5t-79.5 201.5q0 117 77 197q79 83 199 83q117 0 169 -79v65h122v-537h-121zM151 273q0 -69 45.5 -114t109.5 -45q59 0 104 45.5t45 107.5q0 66 -45.5 113t-105.5 47q-63 0 -108 -44.5t-45 -109.5z" />
    <glyph glyph-name="b" unicode="b" horiz-adv-x="644" 
d="M170 494q67 56 168 56q109 0 185 -71q91 -83 91 -209q0 -134 -101 -221q-72 -63 -176 -63q-95 0 -167 58v-44h-123v711h123v-217zM175 266q0 -66 43.5 -111t104.5 -45q71 0 116.5 45.5t45.5 112.5q0 65 -45.5 112t-110.5 47t-109.5 -46t-44.5 -115z" />
    <glyph glyph-name="c" unicode="c" horiz-adv-x="606" 
d="M442 346q-45 84 -140 84q-64 0 -106.5 -45.5t-42.5 -115.5q0 -68 43.5 -113.5t109.5 -45.5q102 0 135 87h133q-24 -99 -95 -155t-172 -56q-120 0 -202 84q-81 83 -81 198t77 195q85 90 208 90q98 0 170.5 -56t95.5 -151h-133z" />
    <glyph glyph-name="d" unicode="d" horiz-adv-x="644" 
d="M473 494v217h123v-711h-123v44q-73 -58 -167 -58q-104 0 -176 63q-101 87 -101 221q0 125 92 209q76 71 185 71q100 0 167 -56zM468 266q0 69 -44 115t-109 46t-110.5 -47t-45.5 -112q0 -67 45.5 -112.5t116.5 -45.5q61 0 104 45t43 111z" />
    <glyph glyph-name="e" unicode="e" horiz-adv-x="606" 
d="M153 229q6 -58 45.5 -91.5t103.5 -33.5q87 0 128 67h135q-34 -88 -102.5 -136.5t-157.5 -48.5q-120 0 -201 84q-80 83 -80 198q0 114 76 195q85 90 200 90q70 0 130.5 -31.5t102.5 -89.5q51 -68 51 -176q0 -4 -0.5 -13t-0.5 -14h-430zM449 328q-32 110 -149 110
q-50 0 -89.5 -30t-53.5 -80h292z" />
    <glyph glyph-name="f" unicode="f" horiz-adv-x="296" 
d="M291 537v-111h-90v-426h-121v426h-64v111h60v15q0 168 189 168q4 0 12.5 -0.5t13.5 -0.5v-112h-9q-42 0 -60.5 -13.5t-18.5 -46.5v-10h88z" />
    <glyph glyph-name="g" unicode="g" horiz-adv-x="644" 
d="M147 278q0 -71 47.5 -118t115.5 -47q63 0 111 47.5t48 111.5q0 70 -47.5 118t-112.5 48q-67 0 -114.5 -46t-47.5 -114zM481 537h112v-448q0 -141 -75 -220t-204 -79q-197 0 -259 181h121q20 -36 56 -56.5t80 -20.5q74 0 121 48t47 129v5q-73 -76 -184 -76q-110 0 -187 72
q-40 38 -63 91t-23 107q0 122 77 201.5t196 79.5q107 0 185 -78v64z" />
    <glyph glyph-name="h" unicode="h" horiz-adv-x="583" 
d="M178 711v-235q54 72 144 72q100 0 154 -61.5t54 -178.5v-308h-125v237q0 102 -22.5 145.5t-88.5 43.5t-91.5 -47t-25.5 -149v-230h-121v711h122z" />
    <glyph glyph-name="i" unicode="i" horiz-adv-x="234" 
d="M56 0v537h122v-537h-122zM178 592h-122v119h122v-119z" />
    <glyph glyph-name="j" unicode="j" horiz-adv-x="245" 
d="M179 592h-121v119h121v-119zM179 537v-518q0 -109 -30 -151t-124 -42q-21 0 -33 1v121h4q42 0 52 18.5t10 77.5v493h121z" />
    <glyph glyph-name="k" unicode="k" horiz-adv-x="495" 
d="M176 0h-121v711h121v-423l174 249h141l-186 -255l223 -282h-157l-195 273v-273z" />
    <glyph glyph-name="l" unicode="l" horiz-adv-x="234" 
d="M56 0v711h122v-711h-122z" />
    <glyph glyph-name="m" unicode="m" horiz-adv-x="928" 
d="M178 537v-61q54 72 144 72q126 0 190 -95q63 95 159 95q98 0 151 -62t53 -178v-308h-123v238q0 102 -22 145t-86 43q-65 0 -90 -47t-25 -149v-230h-124v238q0 101 -22.5 144.5t-88.5 43.5t-91.5 -47t-25.5 -149v-230h-121v537h122z" />
    <glyph glyph-name="n" unicode="n" horiz-adv-x="583" 
d="M178 537v-61q54 72 144 72q115 0 173 -88q22 -34 28.5 -74t6.5 -102v-284h-125v238q0 101 -23 144.5t-88 43.5q-66 0 -91.5 -47t-25.5 -149v-230h-121v537h122z" />
    <glyph glyph-name="o" unicode="o" horiz-adv-x="609" 
d="M23 271q0 117 81 198q84 84 197 84q115 0 197 -77q88 -85 88 -202q0 -123 -80 -204q-81 -84 -203 -84q-119 0 -201 86q-79 85 -79 199zM152 272q0 -75 41 -118.5t111 -43.5q69 0 110.5 44.5t41.5 120.5q0 68 -43.5 111.5t-108.5 43.5q-67 0 -109.5 -44t-42.5 -114z" />
    <glyph glyph-name="p" unicode="p" horiz-adv-x="644" 
d="M170 43v-217h-123v711h123v-45q74 59 167 59q104 0 176 -63q101 -87 101 -221q0 -126 -91 -209q-77 -72 -185 -72q-100 0 -168 57zM175 271q0 -69 44.5 -115t109.5 -46t110.5 47t45.5 112q0 67 -45.5 112.5t-116.5 45.5q-61 0 -104.5 -45t-43.5 -111z" />
    <glyph glyph-name="q" unicode="q" horiz-adv-x="644" 
d="M473 43q-68 -57 -167 -57q-108 0 -185 72q-92 84 -92 209q0 134 101 221q72 63 176 63q93 0 167 -59v45h123v-711h-123v217zM468 271q0 66 -43 111t-104 45q-71 0 -116.5 -45.5t-45.5 -112.5q0 -65 45.5 -112t110.5 -47t109 46t44 115z" />
    <glyph glyph-name="r" unicode="r" horiz-adv-x="301" 
d="M306 428q-77 -6 -103.5 -40.5t-26.5 -113.5v-274h-125v537h117v-62q55 70 138 70v-117z" />
    <glyph glyph-name="s" unicode="s" horiz-adv-x="407" 
d="M137 178v-7q0 -36 18.5 -58t46.5 -22q27 0 44.5 16.5t17.5 42.5q0 25 -13 40t-45 30q-18 8 -41.5 17.5t-38 16t-21.5 12.5q-58 48 -58 123q0 68 47.5 115t115.5 47q71 0 113 -41.5t46 -116.5h-112v3q0 26 -13.5 40.5t-37.5 14.5q-21 0 -35 -14.5t-14 -35.5
q0 -10 3.5 -18.5t7.5 -14t15.5 -12t19 -9.5t26.5 -11t30 -13q65 -29 92.5 -64t27.5 -100q0 -75 -51 -124t-128 -49t-125 51.5t-52 140.5h114z" />
    <glyph glyph-name="t" unicode="t" horiz-adv-x="306" 
d="M94 0v426h-82v111h82v174h125v-174h83v-111h-83v-426h-125z" />
    <glyph glyph-name="u" unicode="u" horiz-adv-x="583" 
d="M405 0v58q-54 -72 -144 -72q-100 0 -154.5 62t-54.5 178v311h126v-241q0 -102 22.5 -145.5t88.5 -43.5t91.5 47.5t25.5 149.5v233h123v-537h-124z" />
    <glyph glyph-name="v" unicode="v" horiz-adv-x="486" 
d="M289 0h-98l-204 537h133l125 -357l129 357h130z" />
    <glyph glyph-name="w" unicode="w" horiz-adv-x="704" 
d="M351 325l-91 -325h-82l-186 537h135l87 -310l95 310h92l90 -310l87 310h135l-187 -537h-82z" />
    <glyph glyph-name="x" unicode="x" horiz-adv-x="456" 
d="M224 171l-111 -171h-137l182 279l-161 258h140l93 -153l95 153h146l-171 -255l173 -282h-142z" />
    <glyph glyph-name="y" unicode="y" horiz-adv-x="512" 
d="M-11 537h132l131 -375l144 375h131l-290 -711h-129l75 189z" />
    <glyph glyph-name="z" unicode="z" horiz-adv-x="421" 
d="M17 0v115l240 306h-220v116h354v-134l-223 -283h238v-120h-389z" />
    <glyph glyph-name="braceleft" unicode="{" 
d="M427 721v-87q-4 0 -12 0.5t-11 0.5q-56 0 -73.5 -22t-17.5 -83v-118q0 -72 -20 -105.5t-79 -47.5q59 -14 79 -48t20 -105v-117q0 -62 17.5 -84t74.5 -22q3 0 10.5 0.5t11.5 0.5v-86h-31q-93 0 -133 24q-31 18 -40.5 51t-9.5 95v121q0 70 -25.5 99t-87.5 29q-4 0 -11 -0.5
t-10 -0.5v87q3 0 10 -0.5t11 -0.5q62 0 87.5 29t25.5 98v121q0 63 9.5 95.5t40.5 51.5q41 24 142 24h22z" />
    <glyph glyph-name="bar" unicode="|" 
d="M207 764h87v-1000h-87v1000z" />
    <glyph glyph-name="braceright" unicode="}" 
d="M74 721h22q100 0 141 -24q31 -19 40.5 -52t9.5 -95v-121q0 -69 25 -98t88 -29q3 0 10 0.5t11 0.5v-87q-3 0 -10 0.5t-11 0.5q-62 0 -87.5 -29t-25.5 -99v-121q0 -62 -9.5 -94.5t-40.5 -51.5q-40 -24 -141 -24h-22v86q4 0 11.5 -0.5t10.5 -0.5q56 0 73.5 22t17.5 84v117
q0 71 20.5 105t79.5 48q-60 14 -80 48t-20 105v118q0 61 -17.5 83t-72.5 22q-3 0 -11 -0.5t-12 -0.5v87z" />
    <glyph glyph-name="asciitilde" unicode="~" horiz-adv-x="833" 
d="M747 383v-90q-100 -69 -186 -69q-44 0 -93 17q-10 3 -39 13.5t-41.5 14t-35 9.5t-41 8.5t-36.5 2.5q-79 0 -188 -77v91q103 70 189 70q58 0 143 -29q7 -2 24 -8t24.5 -9t22.5 -7.5t24.5 -6.5t22.5 -3.5t25 -1.5q81 0 185 75z" />
    <glyph glyph-name="exclamdown" unicode="&#xa1;" horiz-adv-x="306" 
d="M90 711h125v-135h-125v135zM90 516h125v-516h-125v516z" />
    <glyph glyph-name="cent" unicode="&#xa2;" horiz-adv-x="581" 
d="M418 428q-35 91 -125 91q-55 0 -94 -47.5t-39 -119.5t39.5 -119t97.5 -47q86 0 120 94h129q-35 -163 -196 -208v-112h-109v113q-94 26 -150.5 103t-56.5 177q0 102 55.5 176.5t151.5 101.5v106h109v-104q162 -35 197 -205h-129z" />
    <glyph glyph-name="sterling" unicode="&#xa3;" horiz-adv-x="581" 
d="M428 314h-148q38 -68 38 -120q0 -46 -18 -77q14 -3 23 -3q46 0 75.5 32t29.5 84q0 24 -5 43h124q5 -26 5 -53q0 -105 -61.5 -167t-173.5 -62q-6 0 -69 3l-204 6v118h114q29 21 29 76t-51 120h-106v114h51q-12 34 -12 63q0 99 67 166.5t166 67.5q94 0 154.5 -49t76.5 -137
h-143q-9 29 -32 45.5t-54 16.5q-41 0 -68 -26.5t-27 -63.5q0 -31 24 -83h195v-114z" />
    <glyph glyph-name="currency" unicode="&#xa4;" horiz-adv-x="606" 
d="M82 698l99 -99q53 40 122 40q70 0 123 -40l99 99l46 -45l-100 -100q39 -53 39 -121t-39 -121l100 -100l-46 -45l-99 100q-55 -40 -122 -40q-70 0 -123 40l-99 -100l-45 45l99 100q-39 53 -39 121t39 121l-99 100zM304 574q-58 0 -100 -42t-42 -100q0 -59 41.5 -100
t100.5 -41t100.5 41t41.5 100q0 58 -42 100t-100 42z" />
    <glyph glyph-name="yen" unicode="&#xa5;" horiz-adv-x="581" 
d="M563 707l-88 -192h72v-86h-112l-38 -82h150v-86h-191v-261h-134v261h-191v86h150l-37 82h-113v86h74l-87 192h144l129 -311l129 311h143z" />
    <glyph glyph-name="brokenbar" unicode="&#xa6;" 
d="M207 699h87v-370h-87v370zM207 199h87v-370h-87v370z" />
    <glyph glyph-name="section" unicode="&#xa7;" 
d="M56 65h121q7 -76 76 -76q33 0 51.5 15.5t18.5 42.5q0 11 -4 20.5t-8 15.5t-16.5 14t-19 11.5t-25.5 13l-27 13.5l-87 44q-110 56 -110 146q0 87 84 130q-48 43 -48 106q0 73 50.5 118.5t133.5 45.5q87 0 135.5 -44t49.5 -123h-115q-2 67 -72 67q-63 0 -63 -50
q0 -20 20 -36.5t69 -39.5l82 -39q122 -57 122 -150q0 -91 -86 -128q57 -49 57 -122q0 -74 -53 -123.5t-139 -49.5q-189 0 -197 178zM322 225q39 23 39 54q0 22 -13.5 35.5t-44.5 29.5l-129 66q-39 -23 -39 -57q0 -22 17.5 -36.5t60.5 -36.5z" />
    <glyph glyph-name="dieresis" unicode="&#xa8;" 
d="M115 632v112h100v-112h-100zM285 632v112h100v-112h-100z" />
    <glyph glyph-name="copyright" unicode="&#xa9;" horiz-adv-x="833" 
d="M416 718q151 0 257 -106q105 -105 105 -255q0 -153 -104 -254q-110 -108 -258 -108q-147 0 -254 107t-107 255q0 146 108 256q103 105 253 105zM417 665q-130 0 -217 -89q-91 -93 -91 -219t91 -217t217 -91q125 0 219 92q89 87 89 216t-89 218q-90 90 -219 90zM589 441
h-81q-5 36 -29.5 55.5t-63.5 19.5q-47 0 -75 -41.5t-28 -117.5q0 -75 28.5 -115t79.5 -40q39 0 63 21.5t29 60.5h81q-4 -65 -52 -105.5t-124 -40.5q-89 0 -141.5 58t-52.5 158q0 102 54 162t142 60q72 0 118.5 -37.5t51.5 -97.5z" />
    <glyph glyph-name="ordfeminine" unicode="&#xaa;" horiz-adv-x="483" 
d="M352 335v46q-33 -54 -125 -54q-90 0 -150 57t-60 141q0 80 58 138q61 58 149 58t127 -56v46h92v-376h-91zM113 526q0 -48 34.5 -79.5t82.5 -31.5q44 0 77.5 32t33.5 75q0 46 -34 79t-79 33q-47 0 -81 -31.5t-34 -76.5z" />
    <glyph glyph-name="guillemotleft" unicode="&#xab;" horiz-adv-x="544" 
d="M280 425l-120 -157l120 -156h-97l-121 156l121 157h97zM470 425l-120 -157l120 -156h-97l-121 156l121 157h97z" />
    <glyph glyph-name="logicalnot" unicode="&#xac;" horiz-adv-x="833" 
d="M124 421h585v-245h-81v164h-504v81z" />
    <glyph glyph-name="registered" unicode="&#xae;" horiz-adv-x="833" 
d="M416 718q153 0 259 -108q103 -105 103 -253q0 -153 -106 -256q-109 -106 -256 -106q-149 0 -256 109q-105 107 -105 253q0 149 109 258q103 103 252 103zM417 665q-127 0 -215 -88q-93 -95 -93 -220t89 -216q92 -92 214 -92q130 0 223 90q90 87 90 213q0 131 -88 221
q-92 92 -220 92zM269 566h156q171 0 171 -110q0 -92 -90 -112l90 -183h-97l-80 169h-63v-169h-87v405zM356 511v-127h57q49 0 71.5 14.5t22.5 47.5q0 65 -98 65h-53z" />
    <glyph glyph-name="macron" unicode="&#xaf;" 
d="M115 656v72h270v-72h-270z" />
    <glyph glyph-name="degree" unicode="&#xb0;" horiz-adv-x="329" 
d="M165 713q59 0 101.5 -42.5t42.5 -102.5q0 -59 -42.5 -101.5t-102.5 -42.5t-101.5 41.5t-41.5 102.5t42 103t102 42zM165 659q-38 0 -64.5 -26.5t-26.5 -63.5t27 -64t64 -27q38 0 64 27t26 64t-26.5 63.5t-63.5 26.5z" />
    <glyph glyph-name="plusminus" unicode="&#xb1;" horiz-adv-x="833" 
d="M375 589h83v-163h251v-81h-251v-163h-83v163h-251v81h251v163zM124 89h585v-82h-585v82z" />
    <glyph glyph-name="twosuperior" unicode="&#xb2;" horiz-adv-x="383" 
d="M345 284h-310v80l170 144q49 42 49 79q0 24 -17 39.5t-44 15.5q-28 0 -43.5 -16.5t-15.5 -46.5v-8h-92v2q0 66 42 105.5t111 39.5q65 0 108.5 -38.5t43.5 -93.5q0 -59 -70 -117l-132 -108h200v-77z" />
    <glyph glyph-name="threesuperior" unicode="&#xb3;" horiz-adv-x="383" 
d="M37 421h88v-3q0 -30 17.5 -48t46.5 -18q31 0 51 20t20 53q0 67 -87 67q-2 0 -6.5 -0.5t-6.5 -0.5v71q2 0 6 -0.5t6 -0.5q57 0 57 44q0 40 -40 40q-35 0 -37 -41h-81q0 52 34 83.5t89 31.5q49 0 83.5 -31.5t34.5 -74.5q0 -51 -46 -80q80 -33 80 -115q0 -53 -40 -96
q-45 -46 -115 -46q-72 0 -113 38t-41 105v2z" />
    <glyph glyph-name="acute" unicode="&#xb4;" 
d="M178 607l100 170h108l-144 -170h-64z" />
    <glyph glyph-name="mu" unicode="&#xb5;" horiz-adv-x="590" 
d="M100 528h112l-61 -310q-6 -28 -6 -51q0 -96 89 -96q61 0 95.5 44.5t53.5 141.5l53 271h110l-71 -361q-9 -47 -9 -65q0 -17 7.5 -24.5t25.5 -7.5q11 0 17 1l-16 -78q-31 -8 -73 -8q-73 0 -73 61v7q-42 -69 -124 -69q-76 0 -115 53l-48 -247h-112z" />
    <glyph glyph-name="paragraph" unicode="&#xb6;" 
d="M473 722v-48h-57v-674h-63v674h-83v-674h-63v383q-83 3 -131.5 49.5t-48.5 119.5q0 76 51.5 123t139.5 47h255z" />
    <glyph glyph-name="periodcentered" unicode="&#xb7;" horiz-adv-x="291" 
d="M78 356q0 28 19.5 47t47.5 19t47.5 -19t19.5 -47t-19.5 -47.5t-47.5 -19.5t-47.5 19.5t-19.5 47.5z" />
    <glyph glyph-name="cedilla" unicode="&#xb8;" 
d="M122 -212v58q81 -21 124 -21q53 0 53 37q0 39 -69 39q-4 0 -11 -0.5t-10 -0.5v100h45v-46h7q115 0 115 -94q0 -44 -31.5 -68.5t-90.5 -24.5q-55 0 -132 21z" />
    <glyph glyph-name="onesuperior" unicode="&#xb9;" horiz-adv-x="383" 
d="M251 284h-88v364h-82v63h170v-427z" />
    <glyph glyph-name="ordmasculine" unicode="&#xba;" horiz-adv-x="457" 
d="M17 525q0 82 61 138q64 59 148 59q86 0 148 -54q66 -60 66 -141q0 -86 -60 -143q-62 -59 -153 -59q-89 0 -150 60q-60 60 -60 140zM114 525q0 -52 31 -82.5t83 -30.5t83 31t31 84q0 48 -32.5 78.5t-81.5 30.5q-50 0 -82 -31t-32 -80z" />
    <glyph glyph-name="guillemotright" unicode="&#xbb;" horiz-adv-x="544" 
d="M74 425h97l121 -157l-121 -156h-97l120 156zM264 425h97l120 -157l-120 -156h-97l120 156z" />
    <glyph glyph-name="onequarter" unicode="&#xbc;" horiz-adv-x="899" 
d="M239 313h-84v339h-78v59h162v-398zM628 725h71l-427 -740h-73zM834 0h-77v60h-197v67l193 271h81v-271h37v-67h-37v-60zM757 127v166l-119 -166h119z" />
    <glyph glyph-name="onehalf" unicode="&#xbd;" horiz-adv-x="899" 
d="M239 313h-84v339h-78v59h162v-398zM628 725h71l-427 -740h-73zM862 0h-296v74l163 135q47 39 47 74q0 22 -16.5 36.5t-41.5 14.5q-57 0 -57 -59v-7h-88v1q0 62 40.5 99t105.5 37q62 0 103.5 -36t41.5 -87q0 -56 -67 -110l-125 -100h190v-72z" />
    <glyph glyph-name="threequarters" unicode="&#xbe;" horiz-adv-x="899" 
d="M35 441h84v-3q0 -28 17 -45t44 -17q30 0 49 19t19 50q0 62 -83 62q-2 0 -6 -0.5t-7 -0.5v66h12q55 0 55 41q0 17 -10.5 27t-28.5 10q-33 0 -35 -39h-78q0 49 32.5 78.5t85.5 29.5q47 0 80 -29.5t33 -69.5q0 -47 -44 -75q76 -30 76 -107q0 -51 -38 -89q-43 -44 -109 -44
q-69 0 -108.5 35.5t-39.5 98.5v2zM628 725h71l-427 -740h-73zM834 0h-77v60h-197v67l193 271h81v-271h37v-67h-37v-60zM757 127v166l-119 -166h119z" />
    <glyph glyph-name="questiondown" unicode="&#xbf;" horiz-adv-x="509" 
d="M340 725v-135h-125v135h125zM340 530q0 -87 -66 -170q-7 -9 -31 -33t-37 -42q-17 -23 -17 -59q0 -48 24.5 -74.5t68.5 -26.5q38 0 61.5 28.5t24.5 77.5h131q-1 -103 -64.5 -167t-160.5 -64q-98 0 -162 61.5t-64 156.5q0 17 2.5 32.5t5.5 27t10 24t11 19.5t14.5 18.5
t15 16t17.5 16t17 15.5q37 35 55 66.5t19 76.5h125z" />
    <glyph glyph-name="Agrave" unicode="&#xc0;" horiz-adv-x="602" 
d="M162 149l-55 -149h-144l276 711h120l272 -711h-149l-56 149h-264zM380 281l-84 229l-86 -229h170zM373 778h-64l-144 170h108z" />
    <glyph glyph-name="Aacute" unicode="&#xc1;" horiz-adv-x="602" 
d="M162 149l-55 -149h-144l276 711h120l272 -711h-149l-56 149h-264zM380 281l-84 229l-86 -229h170zM229 778l100 170h108l-144 -170h-64z" />
    <glyph glyph-name="Acircumflex" unicode="&#xc2;" horiz-adv-x="602" 
d="M162 149l-55 -149h-144l276 711h120l272 -711h-149l-56 149h-264zM380 281l-84 229l-86 -229h170zM156 778l92 171h106l92 -171h-64l-81 103l-82 -103h-63z" />
    <glyph glyph-name="Atilde" unicode="&#xc3;" horiz-adv-x="602" 
d="M162 149l-55 -149h-144l276 711h120l272 -711h-149l-56 149h-264zM380 281l-84 229l-86 -229h170zM448 921q-11 -55 -34 -82.5t-63 -27.5q-19 0 -34 4l-41 12q-24 6 -31 6q-31 0 -42 -33h-49q19 106 94 106q17 0 41 -6l43 -12q16 -4 25 -4q33 0 42 37h49z" />
    <glyph glyph-name="Adieresis" unicode="&#xc4;" horiz-adv-x="602" 
d="M162 149l-55 -149h-144l276 711h120l272 -711h-149l-56 149h-264zM380 281l-84 229l-86 -229h170zM166 803v112h100v-112h-100zM336 803v112h100v-112h-100z" />
    <glyph glyph-name="Aring" unicode="&#xc5;" horiz-adv-x="602" 
d="M162 149l-55 -149h-144l276 705h120l272 -705h-149l-56 149h-264zM380 281l-84 229l-86 -229h170zM247 844q0 -22 15 -37t37 -15t37 15t15 37t-15 37.5t-37 15.5t-37 -15.5t-15 -37.5zM187 844q0 46 32.5 79t79.5 33t79.5 -33t32.5 -79t-32.5 -78.5t-79.5 -32.5
t-79.5 32.5t-32.5 78.5z" />
    <glyph glyph-name="AE" unicode="&#xc6;" horiz-adv-x="833" 
d="M393 322v254h-17l-124 -254h141zM393 0v190h-205l-92 -190h-156l380 711h456v-125h-245v-162h245v-123h-245v-176h245v-125h-383z" />
    <glyph glyph-name="Ccedilla" unicode="&#xc7;" horiz-adv-x="752" 
d="M727 500h-170q-60 82 -167 82q-89 0 -150 -63q-66 -68 -66 -161q0 -98 63 -164t153 -66q108 0 162 76h170q-99 -218 -331 -218q-161 0 -269 122q-92 103 -92 252q0 151 111 262q105 103 251 103q231 0 335 -225zM263 -212v58q81 -21 124 -21q53 0 53 37q0 39 -69 39
q-3 0 -10 -0.5t-11 -0.5v100h45v-46h7q115 0 115 -94q0 -44 -31.5 -68.5t-90.5 -24.5q-55 0 -132 21z" />
    <glyph glyph-name="Egrave" unicode="&#xc8;" 
d="M443 0h-384v711h384v-125h-246v-162h246v-123h-246v-176h246v-125zM322 778h-64l-144 170h108z" />
    <glyph glyph-name="Eacute" unicode="&#xc9;" 
d="M443 0h-384v711h384v-125h-246v-162h246v-123h-246v-176h246v-125zM178 778l100 170h108l-144 -170h-64z" />
    <glyph glyph-name="Ecircumflex" unicode="&#xca;" 
d="M443 0h-384v711h384v-125h-246v-162h246v-123h-246v-176h246v-125zM105 778l92 171h106l92 -171h-64l-81 103l-82 -103h-63z" />
    <glyph glyph-name="Edieresis" unicode="&#xcb;" 
d="M443 0h-384v711h384v-125h-246v-162h246v-123h-246v-176h246v-125zM115 803v112h100v-112h-100zM285 803v112h100v-112h-100z" />
    <glyph glyph-name="Igrave" unicode="&#xcc;" horiz-adv-x="259" 
d="M60 0v711h139v-711h-139zM202 778h-64l-144 170h108z" />
    <glyph glyph-name="Iacute" unicode="&#xcd;" horiz-adv-x="259" 
d="M60 0v711h139v-711h-139zM58 778l100 170h108l-144 -170h-64z" />
    <glyph glyph-name="Icircumflex" unicode="&#xce;" horiz-adv-x="259" 
d="M60 0v711h139v-711h-139zM-15 778l92 171h106l92 -171h-64l-81 103l-82 -103h-63z" />
    <glyph glyph-name="Idieresis" unicode="&#xcf;" horiz-adv-x="259" 
d="M60 0v711h139v-711h-139zM-5 803v112h100v-112h-100zM165 803v112h100v-112h-100z" />
    <glyph glyph-name="Eth" unicode="&#xd0;" horiz-adv-x="699" 
d="M315 0h-242v298h-73v116h73v297h237q90 0 150 -18t111 -67q102 -99 102 -274q0 -198 -141 -299q-43 -31 -93.5 -42t-123.5 -11zM306 122q115 0 170 56.5t55 177.5q0 111 -60 172.5t-167 61.5h-91v-176h147v-116h-147v-176h93z" />
    <glyph glyph-name="Ntilde" unicode="&#xd1;" horiz-adv-x="681" 
d="M196 0h-137v711h132l294 -454v454h136v-711h-129l-296 468v-468zM488 921q-11 -55 -34 -82.5t-63 -27.5q-19 0 -34 4l-41 12q-24 6 -31 6q-31 0 -42 -33h-49q19 106 94 106q17 0 41 -6l43 -12q16 -4 25 -4q33 0 42 37h49z" />
    <glyph glyph-name="Ograve" unicode="&#xd2;" horiz-adv-x="787" 
d="M28 357q0 117 62 208q53 77 132.5 118.5t173.5 41.5q146 0 254 -106q109 -109 109 -259q0 -156 -103 -262q-107 -112 -262 -112q-160 0 -265 112q-101 107 -101 259zM174 362q0 -92 60 -158q68 -74 160 -74t156 65.5t64 166.5q0 91 -64 155t-153 64q-93 0 -158 -64
t-65 -155zM466 778h-64l-144 170h108z" />
    <glyph glyph-name="Oacute" unicode="&#xd3;" horiz-adv-x="787" 
d="M28 357q0 117 62 208q53 77 132.5 118.5t173.5 41.5q146 0 254 -106q109 -109 109 -259q0 -156 -103 -262q-107 -112 -262 -112q-160 0 -265 112q-101 107 -101 259zM174 362q0 -92 60 -158q68 -74 160 -74t156 65.5t64 166.5q0 91 -64 155t-153 64q-93 0 -158 -64
t-65 -155zM322 778l100 170h108l-144 -170h-64z" />
    <glyph glyph-name="Ocircumflex" unicode="&#xd4;" horiz-adv-x="787" 
d="M28 357q0 117 62 208q53 77 132.5 118.5t173.5 41.5q146 0 254 -106q109 -109 109 -259q0 -156 -103 -262q-107 -112 -262 -112q-160 0 -265 112q-101 107 -101 259zM174 362q0 -92 60 -158q68 -74 160 -74t156 65.5t64 166.5q0 91 -64 155t-153 64q-93 0 -158 -64
t-65 -155zM249 778l92 171h106l92 -171h-64l-81 103l-82 -103h-63z" />
    <glyph glyph-name="Otilde" unicode="&#xd5;" horiz-adv-x="787" 
d="M28 357q0 117 62 208q53 77 132.5 118.5t173.5 41.5q146 0 254 -106q109 -109 109 -259q0 -156 -103 -262q-107 -112 -262 -112q-160 0 -265 112q-101 107 -101 259zM174 362q0 -92 60 -158q68 -74 160 -74t156 65.5t64 166.5q0 91 -64 155t-153 64q-93 0 -158 -64
t-65 -155zM541 921q-11 -55 -34 -82.5t-63 -27.5q-19 0 -34 4l-41 12q-24 6 -31 6q-32 0 -42 -33h-49q19 106 94 106q17 0 41 -6l43 -12q16 -4 25 -4q33 0 42 37h49z" />
    <glyph glyph-name="Odieresis" unicode="&#xd6;" horiz-adv-x="787" 
d="M28 357q0 117 62 208q53 77 132.5 118.5t173.5 41.5q146 0 254 -106q109 -109 109 -259q0 -156 -103 -262q-107 -112 -262 -112q-160 0 -265 112q-101 107 -101 259zM174 362q0 -92 60 -158q68 -74 160 -74t156 65.5t64 166.5q0 91 -64 155t-153 64q-93 0 -158 -64
t-65 -155zM259 803v112h100v-112h-100zM429 803v112h100v-112h-100z" />
    <glyph glyph-name="multiply" unicode="&#xd7;" horiz-adv-x="833" 
d="M197 580l224 -224l225 224l57 -57l-224 -225l224 -224l-57 -58l-225 225l-224 -225l-57 58l224 224l-224 225z" />
    <glyph glyph-name="Oslash" unicode="&#xd8;" horiz-adv-x="787" 
d="M191 48l-110 -126l-80 71l110 128q-83 105 -83 242q0 151 109 257q107 104 258 104q105 0 189 -54l103 115l82 -71l-100 -116q90 -102 90 -238q0 -154 -103 -262q-107 -112 -271 -112q-104 0 -194 62zM287 159q36 -29 103 -29q95 0 159 65.5t64 166.5q0 69 -40 127z
M491 559q-49 22 -94 22q-96 0 -160 -64t-64 -161q0 -64 39 -119z" />
    <glyph glyph-name="Ugrave" unicode="&#xd9;" horiz-adv-x="576" 
d="M59 711h139v-410q0 -91 19 -131t71 -40t71 40t19 131v410h139v-451q0 -65 -6.5 -105.5t-29.5 -73.5q-65 -95 -193 -95t-193 95q-17 25 -25.5 57t-9.5 54.5t-1 67.5v451zM360 778h-64l-144 170h108z" />
    <glyph glyph-name="Uacute" unicode="&#xda;" horiz-adv-x="576" 
d="M59 711h139v-410q0 -91 19 -131t71 -40t71 40t19 131v410h139v-451q0 -65 -6.5 -105.5t-29.5 -73.5q-65 -95 -193 -95t-193 95q-17 25 -25.5 57t-9.5 54.5t-1 67.5v451zM216 778l100 170h108l-144 -170h-64z" />
    <glyph glyph-name="Ucircumflex" unicode="&#xdb;" horiz-adv-x="576" 
d="M59 711h139v-410q0 -91 19 -131t71 -40t71 40t19 131v410h139v-451q0 -65 -6.5 -105.5t-29.5 -73.5q-65 -95 -193 -95t-193 95q-17 25 -25.5 57t-9.5 54.5t-1 67.5v451zM143 778l92 171h106l92 -171h-64l-81 103l-82 -103h-63z" />
    <glyph glyph-name="Udieresis" unicode="&#xdc;" horiz-adv-x="576" 
d="M59 711h139v-410q0 -91 19 -131t71 -40t71 40t19 131v410h139v-451q0 -65 -6.5 -105.5t-29.5 -73.5q-65 -95 -193 -95t-193 95q-17 25 -25.5 57t-9.5 54.5t-1 67.5v451zM153 803v112h100v-112h-100zM323 803v112h100v-112h-100z" />
    <glyph glyph-name="Yacute" unicode="&#xdd;" horiz-adv-x="493" 
d="M314 256v-256h-139v256l-204 455h153l123 -306l122 306h152zM175 778l100 170h108l-144 -170h-64z" />
    <glyph glyph-name="Thorn" unicode="&#xde;" horiz-adv-x="514" 
d="M198 148v-148h-139v711h139v-126h38q123 0 169 -30q44 -29 69 -78.5t25 -105.5q0 -100 -66.5 -161.5t-182.5 -61.5h-52zM198 268h37q59 0 89.5 25t30.5 71q0 97 -121 97h-36v-193z" />
    <glyph glyph-name="germandbls" unicode="&#xdf;" horiz-adv-x="602" 
d="M265 418q47 0 73.5 27.5t26.5 74.5q0 44 -26.5 72t-65.5 28q-53 0 -74 -31.5t-21 -101.5v-297h67q8 -46 36 -72t67 -26q44 0 77 32.5t33 74.5q0 113 -157 113q-23 0 -36 -1v107zM56 0v473q0 126 51.5 187t160.5 61q97 0 156 -55.5t59 -141.5q0 -74 -59 -126
q156 -43 156 -194q0 -93 -59.5 -155.5t-148.5 -62.5q-70 0 -120 33t-74 95v-114h-122z" />
    <glyph glyph-name="agrave" unicode="&#xe0;" horiz-adv-x="644" 
d="M469 0v66q-43 -78 -167 -78q-120 0 -199.5 81.5t-79.5 201.5q0 117 77 197q79 83 199 83q117 0 169 -79v65h122v-537h-121zM151 273q0 -69 45.5 -114t109.5 -45q59 0 104 45.5t45 107.5q0 66 -45.5 113t-105.5 47q-63 0 -108 -44.5t-45 -109.5zM394 607h-64l-144 170h108
z" />
    <glyph glyph-name="aacute" unicode="&#xe1;" horiz-adv-x="644" 
d="M469 0v66q-43 -78 -167 -78q-120 0 -199.5 81.5t-79.5 201.5q0 117 77 197q79 83 199 83q117 0 169 -79v65h122v-537h-121zM151 273q0 -69 45.5 -114t109.5 -45q59 0 104 45.5t45 107.5q0 66 -45.5 113t-105.5 47q-63 0 -108 -44.5t-45 -109.5zM250 607l100 170h108
l-144 -170h-64z" />
    <glyph glyph-name="acircumflex" unicode="&#xe2;" horiz-adv-x="644" 
d="M469 0v66q-43 -78 -167 -78q-120 0 -199.5 81.5t-79.5 201.5q0 117 77 197q79 83 199 83q117 0 169 -79v65h122v-537h-121zM151 273q0 -69 45.5 -114t109.5 -45q59 0 104 45.5t45 107.5q0 66 -45.5 113t-105.5 47q-63 0 -108 -44.5t-45 -109.5zM177 607l92 171h106
l92 -171h-64l-81 103l-82 -103h-63z" />
    <glyph glyph-name="atilde" unicode="&#xe3;" horiz-adv-x="644" 
d="M469 0v66q-43 -78 -167 -78q-120 0 -199.5 81.5t-79.5 201.5q0 117 77 197q79 83 199 83q117 0 169 -79v65h122v-537h-121zM151 273q0 -69 45.5 -114t109.5 -45q59 0 104 45.5t45 107.5q0 66 -45.5 113t-105.5 47q-63 0 -108 -44.5t-45 -109.5zM469 750
q-11 -55 -34 -82.5t-63 -27.5q-19 0 -34 4l-41 12q-24 6 -31 6q-32 0 -42 -33h-49q19 106 94 106q17 0 41 -6l43 -12q16 -4 25 -4q33 0 42 37h49z" />
    <glyph glyph-name="adieresis" unicode="&#xe4;" horiz-adv-x="644" 
d="M469 0v66q-43 -78 -167 -78q-120 0 -199.5 81.5t-79.5 201.5q0 117 77 197q79 83 199 83q117 0 169 -79v65h122v-537h-121zM151 273q0 -69 45.5 -114t109.5 -45q59 0 104 45.5t45 107.5q0 66 -45.5 113t-105.5 47q-63 0 -108 -44.5t-45 -109.5zM187 632v112h100v-112
h-100zM357 632v112h100v-112h-100z" />
    <glyph glyph-name="aring" unicode="&#xe5;" horiz-adv-x="644" 
d="M151 273q0 -69 45.5 -114t109.5 -45q59 0 104 45.5t45 107.5q0 66 -45.5 113t-105.5 47q-63 0 -108 -44.5t-45 -109.5zM469 0v66q-43 -78 -167 -78q-120 0 -199.5 81.5t-79.5 201.5q0 117 77 197q79 83 199 83q117 0 169 -79v65h122v-537h-121zM191 691q0 47 32.5 79.5
t79.5 32.5t79.5 -32.5t32.5 -79.5t-32.5 -79.5t-79.5 -32.5t-79.5 32.5t-32.5 79.5zM251 691q0 -22 15 -37.5t37 -15.5t37 15.5t15 37.5t-15 37t-37 15t-37 -15t-15 -37z" />
    <glyph glyph-name="ae" unicode="&#xe6;" horiz-adv-x="1037" 
d="M151 273q0 -69 45.5 -114t109.5 -45q59 0 104 45.5t45 107.5q0 66 -45.5 113t-105.5 47q-63 0 -108 -44.5t-45 -109.5zM880 327q-32 110 -149 110q-50 0 -89 -30t-53 -80h291zM568 0h-96v83q-45 -95 -163 -95q-125 0 -205.5 80.5t-80.5 202.5q0 115 77 197q79 83 199 83
q121 0 173 -95v81h96v-81q59 95 176 95q118 0 194.5 -82t76.5 -216q0 -4 -0.5 -12.5t-0.5 -12.5h-429q5 -58 45 -91.5t104 -33.5q85 0 127 66h135q-36 -90 -104 -137.5t-160 -47.5q-121 0 -164 99v-83z" />
    <glyph glyph-name="ccedilla" unicode="&#xe7;" horiz-adv-x="606" 
d="M442 346q-45 84 -140 84q-64 0 -106.5 -45.5t-42.5 -115.5q0 -68 43.5 -113.5t109.5 -45.5q102 0 135 87h133q-24 -99 -95 -155t-172 -56q-120 0 -202 84q-81 83 -81 198t77 195q85 90 208 90q98 0 170.5 -56t95.5 -151h-133zM180 -212v58q81 -21 124 -21q53 0 53 37
q0 39 -69 39q-4 0 -11 -0.5t-10 -0.5v100h45v-46h7q115 0 115 -94q0 -44 -31.5 -68.5t-90.5 -24.5q-55 0 -132 21z" />
    <glyph glyph-name="egrave" unicode="&#xe8;" horiz-adv-x="606" 
d="M153 229q6 -58 45.5 -91.5t103.5 -33.5q87 0 128 67h135q-34 -88 -102.5 -136.5t-157.5 -48.5q-120 0 -201 84q-80 83 -80 198q0 114 76 195q85 90 200 90q70 0 130.5 -31.5t102.5 -89.5q51 -68 51 -176q0 -4 -0.5 -13t-0.5 -14h-430zM449 328q-32 110 -149 110
q-50 0 -89.5 -30t-53.5 -80h292zM375 607h-64l-144 170h108z" />
    <glyph glyph-name="eacute" unicode="&#xe9;" horiz-adv-x="606" 
d="M153 229q6 -58 45.5 -91.5t103.5 -33.5q87 0 128 67h135q-34 -88 -102.5 -136.5t-157.5 -48.5q-120 0 -201 84q-80 83 -80 198q0 114 76 195q85 90 200 90q70 0 130.5 -31.5t102.5 -89.5q51 -68 51 -176q0 -4 -0.5 -13t-0.5 -14h-430zM449 328q-32 110 -149 110
q-50 0 -89.5 -30t-53.5 -80h292zM231 607l100 170h108l-144 -170h-64z" />
    <glyph glyph-name="ecircumflex" unicode="&#xea;" horiz-adv-x="606" 
d="M153 229q6 -58 45.5 -91.5t103.5 -33.5q87 0 128 67h135q-34 -88 -102.5 -136.5t-157.5 -48.5q-120 0 -201 84q-80 83 -80 198q0 114 76 195q85 90 200 90q70 0 130.5 -31.5t102.5 -89.5q51 -68 51 -176q0 -4 -0.5 -13t-0.5 -14h-430zM449 328q-32 110 -149 110
q-50 0 -89.5 -30t-53.5 -80h292zM158 607l92 171h106l92 -171h-64l-81 103l-82 -103h-63z" />
    <glyph glyph-name="edieresis" unicode="&#xeb;" horiz-adv-x="606" 
d="M153 229q6 -58 45.5 -91.5t103.5 -33.5q87 0 128 67h135q-34 -88 -102.5 -136.5t-157.5 -48.5q-120 0 -201 84q-80 83 -80 198q0 114 76 195q85 90 200 90q70 0 130.5 -31.5t102.5 -89.5q51 -68 51 -176q0 -4 -0.5 -13t-0.5 -14h-430zM449 328q-32 110 -149 110
q-50 0 -89.5 -30t-53.5 -80h292zM168 632v112h100v-112h-100zM338 632v112h100v-112h-100z" />
    <glyph glyph-name="igrave" unicode="&#xec;" horiz-adv-x="234" 
d="M56 0v537h122v-537h-122zM189 607h-64l-144 170h108z" />
    <glyph glyph-name="iacute" unicode="&#xed;" horiz-adv-x="234" 
d="M56 0v537h122v-537h-122zM45 607l100 170h108l-144 -170h-64z" />
    <glyph glyph-name="icircumflex" unicode="&#xee;" horiz-adv-x="234" 
d="M56 0v537h122v-537h-122zM-28 607l92 171h106l92 -171h-64l-81 103l-82 -103h-63z" />
    <glyph glyph-name="idieresis" unicode="&#xef;" horiz-adv-x="234" 
d="M56 0v537h122v-537h-122zM-18 632v112h100v-112h-100zM152 632v112h100v-112h-100z" />
    <glyph glyph-name="eth" unicode="&#xf0;" horiz-adv-x="606" 
d="M249 717q69 -30 125 -69l141 50l31 -77l-99 -37q114 -135 114 -319q0 -127 -71.5 -202.5t-186.5 -75.5q-109 0 -181 75q-71 73 -71 173q0 102 73 173q75 73 178 73q66 0 121 -40q-33 68 -76 110l-145 -52l-30 75l97 36q-18 10 -58 28zM300 376q-57 0 -95 -38.5t-38 -98.5
q0 -65 38 -103.5t100 -38.5t99 38.5t37 105.5q0 60 -39.5 97.5t-101.5 37.5z" />
    <glyph glyph-name="ntilde" unicode="&#xf1;" horiz-adv-x="583" 
d="M178 537v-61q54 72 144 72q115 0 173 -88q22 -34 28.5 -74t6.5 -102v-284h-125v238q0 101 -23 144.5t-88 43.5q-66 0 -91.5 -47t-25.5 -149v-230h-121v537h122zM439 750q-11 -55 -34 -82.5t-63 -27.5q-19 0 -34 4l-41 12q-24 6 -31 6q-32 0 -42 -33h-49q19 106 94 106
q17 0 41 -6l43 -12q16 -4 25 -4q33 0 42 37h49z" />
    <glyph glyph-name="ograve" unicode="&#xf2;" horiz-adv-x="609" 
d="M23 271q0 117 81 198q84 84 197 84q115 0 197 -77q88 -85 88 -202q0 -123 -80 -204q-81 -84 -203 -84q-119 0 -201 86q-79 85 -79 199zM152 272q0 -75 41 -118.5t111 -43.5q69 0 110.5 44.5t41.5 120.5q0 68 -43.5 111.5t-108.5 43.5q-67 0 -109.5 -44t-42.5 -114z
M377 607h-64l-144 170h108z" />
    <glyph glyph-name="oacute" unicode="&#xf3;" horiz-adv-x="609" 
d="M23 271q0 117 81 198q84 84 197 84q115 0 197 -77q88 -85 88 -202q0 -123 -80 -204q-81 -84 -203 -84q-119 0 -201 86q-79 85 -79 199zM152 272q0 -75 41 -118.5t111 -43.5q69 0 110.5 44.5t41.5 120.5q0 68 -43.5 111.5t-108.5 43.5q-67 0 -109.5 -44t-42.5 -114z
M233 607l100 170h108l-144 -170h-64z" />
    <glyph glyph-name="ocircumflex" unicode="&#xf4;" horiz-adv-x="609" 
d="M23 271q0 117 81 198q84 84 197 84q115 0 197 -77q88 -85 88 -202q0 -123 -80 -204q-81 -84 -203 -84q-119 0 -201 86q-79 85 -79 199zM152 272q0 -75 41 -118.5t111 -43.5q69 0 110.5 44.5t41.5 120.5q0 68 -43.5 111.5t-108.5 43.5q-67 0 -109.5 -44t-42.5 -114z
M160 607l92 171h106l92 -171h-64l-81 103l-82 -103h-63z" />
    <glyph glyph-name="otilde" unicode="&#xf5;" horiz-adv-x="609" 
d="M23 271q0 117 81 198q84 84 197 84q115 0 197 -77q88 -85 88 -202q0 -123 -80 -204q-81 -84 -203 -84q-119 0 -201 86q-79 85 -79 199zM152 272q0 -75 41 -118.5t111 -43.5q69 0 110.5 44.5t41.5 120.5q0 68 -43.5 111.5t-108.5 43.5q-67 0 -109.5 -44t-42.5 -114z
M452 750q-11 -55 -34 -82.5t-63 -27.5q-19 0 -34 4l-41 12q-24 6 -31 6q-31 0 -42 -33h-49q19 106 94 106q17 0 41 -6l43 -12q16 -4 25 -4q33 0 42 37h49z" />
    <glyph glyph-name="odieresis" unicode="&#xf6;" horiz-adv-x="609" 
d="M23 271q0 117 81 198q84 84 197 84q115 0 197 -77q88 -85 88 -202q0 -123 -80 -204q-81 -84 -203 -84q-119 0 -201 86q-79 85 -79 199zM152 272q0 -75 41 -118.5t111 -43.5q69 0 110.5 44.5t41.5 120.5q0 68 -43.5 111.5t-108.5 43.5q-67 0 -109.5 -44t-42.5 -114z
M170 632v112h100v-112h-100zM340 632v112h100v-112h-100z" />
    <glyph glyph-name="divide" unicode="&#xf7;" horiz-adv-x="833" 
d="M417 551q28 0 47.5 -20t19.5 -48q0 -27 -19.5 -46.5t-47.5 -19.5t-47.5 19t-19.5 47t20 48t47 20zM124 339h585v-81h-585v81zM417 179q28 0 47.5 -19.5t19.5 -47.5q0 -27 -19.5 -46.5t-47.5 -19.5t-47.5 19t-19.5 47t20 47.5t47 19.5z" />
    <glyph glyph-name="oslash" unicode="&#xf8;" horiz-adv-x="609" 
d="M242 122q33 -12 61 -12q67 0 109.5 44t42.5 115q0 53 -19 84zM448 514l78 92l74 -59l-81 -96q66 -75 66 -186q0 -112 -80 -194q-82 -84 -202 -84q-81 0 -142 37l-78 -94l-73 62l81 95q-68 83 -68 181q0 88 47 158q39 60 100.5 93t130.5 33q78 0 147 -38zM368 418
q-29 12 -59 12q-72 0 -114.5 -44.5t-42.5 -119.5q0 -46 21 -81z" />
    <glyph glyph-name="ugrave" unicode="&#xf9;" horiz-adv-x="583" 
d="M405 0v58q-54 -72 -144 -72q-100 0 -154.5 62t-54.5 178v311h126v-241q0 -102 22.5 -145.5t88.5 -43.5t91.5 47.5t25.5 149.5v233h123v-537h-124zM364 607h-64l-144 170h108z" />
    <glyph glyph-name="uacute" unicode="&#xfa;" horiz-adv-x="583" 
d="M405 0v58q-54 -72 -144 -72q-100 0 -154.5 62t-54.5 178v311h126v-241q0 -102 22.5 -145.5t88.5 -43.5t91.5 47.5t25.5 149.5v233h123v-537h-124zM220 607l100 170h108l-144 -170h-64z" />
    <glyph glyph-name="ucircumflex" unicode="&#xfb;" horiz-adv-x="583" 
d="M405 0v58q-54 -72 -144 -72q-100 0 -154.5 62t-54.5 178v311h126v-241q0 -102 22.5 -145.5t88.5 -43.5t91.5 47.5t25.5 149.5v233h123v-537h-124zM147 607l92 171h106l92 -171h-64l-81 103l-82 -103h-63z" />
    <glyph glyph-name="udieresis" unicode="&#xfc;" horiz-adv-x="583" 
d="M405 0v58q-54 -72 -144 -72q-100 0 -154.5 62t-54.5 178v311h126v-241q0 -102 22.5 -145.5t88.5 -43.5t91.5 47.5t25.5 149.5v233h123v-537h-124zM157 632v112h100v-112h-100zM327 632v112h100v-112h-100z" />
    <glyph glyph-name="yacute" unicode="&#xfd;" horiz-adv-x="512" 
d="M-11 537h132l131 -375l144 375h131l-290 -711h-129l75 189zM184 607l100 170h108l-144 -170h-64z" />
    <glyph glyph-name="thorn" unicode="&#xfe;" horiz-adv-x="644" 
d="M175 271q0 -69 44.5 -115t109.5 -46t110.5 47t45.5 112q0 67 -45.5 112.5t-116.5 45.5q-60 0 -104 -45t-44 -111zM170 43v-217h-123v885h123v-219q74 59 167 59q104 0 176 -63q101 -87 101 -221q0 -124 -91 -209q-77 -72 -185 -72q-101 0 -168 57z" />
    <glyph glyph-name="ydieresis" unicode="&#xff;" horiz-adv-x="512" 
d="M-11 537h132l131 -375l144 375h131l-290 -711h-129l75 189zM121 632v112h100v-112h-100zM291 632v112h100v-112h-100z" />
    <glyph glyph-name="dotlessi" unicode="&#x131;" horiz-adv-x="234" 
d="M56 0v537h122v-537h-122z" />
    <glyph glyph-name="Lslash" unicode="&#x141;" horiz-adv-x="454" 
d="M434 0h-361v256l-74 -53v123l74 53v332h138v-276l103 74v-125l-103 -72v-187h223v-125z" />
    <glyph glyph-name="lslash" unicode="&#x142;" horiz-adv-x="262" 
d="M69 0v279l-69 -48v109l69 48v323h123v-277l70 48v-108l-70 -49v-325h-123z" />
    <glyph glyph-name="OE" unicode="&#x152;" horiz-adv-x="1050" 
d="M397 581q-95 0 -159.5 -64t-64.5 -158q0 -88 60 -154q69 -75 161 -75q91 0 155 66t64 166q0 91 -63.5 155t-152.5 64zM613 711h380v-125h-246v-162h246v-123h-246v-176h246v-125h-380v81q-88 -93 -225 -93q-114 0 -202 62q-158 112 -158 313q0 151 109 257
q106 103 256 103q133 0 220 -94v82z" />
    <glyph glyph-name="oe" unicode="&#x153;" horiz-adv-x="1037" 
d="M152 272q0 -75 41.5 -118t110.5 -43t110 44t41 121q0 67 -43 110t-108 43q-67 0 -109.5 -43.5t-42.5 -113.5zM880 327q-32 110 -149 110q-50 0 -89 -30t-53 -80h291zM1014 228h-429q5 -58 45 -91.5t104 -33.5q85 0 127 66h135q-35 -89 -103 -137t-157 -48
q-139 0 -217 102q-84 -99 -216 -99q-119 0 -201 86q-78 84 -78 199t81 196q83 85 202 85q128 0 214 -103q93 103 210 103q70 0 130.5 -31.5t102.5 -89.5q51 -68 51 -177q0 -5 -0.5 -14t-0.5 -13z" />
    <glyph glyph-name="Scaron" unicode="&#x160;" horiz-adv-x="479" 
d="M16 221h127v-10q0 -45 23.5 -72t62.5 -27q42 0 66.5 25t24.5 68q0 13 -1 23t-5.5 18.5t-7 14t-11.5 11.5t-12.5 9t-17 8t-18 6.5t-22.5 7t-24 7.5q-163 51 -163 194q0 100 55.5 160.5t147.5 60.5q86 0 137.5 -54t57.5 -151h-126v6q0 34 -20.5 55t-53.5 21
q-34 0 -54 -21.5t-20 -58.5q0 -31 17 -49q13 -14 30.5 -22t52 -17.5t48.5 -14.5q143 -49 143 -190q0 -110 -61 -176.5t-162 -66.5q-95 0 -154 64t-60 171zM95 949h63l82 -103l81 103h64l-92 -171h-106z" />
    <glyph glyph-name="scaron" unicode="&#x161;" horiz-adv-x="407" 
d="M137 178v-7q0 -36 18.5 -58t46.5 -22q27 0 44.5 16.5t17.5 42.5q0 25 -13 40t-45 30q-18 8 -41.5 17.5t-38 16t-21.5 12.5q-58 48 -58 123q0 68 47.5 115t115.5 47q71 0 113 -41.5t46 -116.5h-112v3q0 26 -13.5 40.5t-37.5 14.5q-21 0 -35 -14.5t-14 -35.5
q0 -10 3.5 -18.5t7.5 -14t15.5 -12t19 -9.5t26.5 -11t30 -13q65 -29 92.5 -64t27.5 -100q0 -75 -51 -124t-128 -49t-125 51.5t-52 140.5h114zM59 778h63l82 -103l81 103h64l-92 -171h-106z" />
    <glyph glyph-name="Ydieresis" unicode="&#x178;" horiz-adv-x="493" 
d="M314 256v-256h-139v256l-204 455h153l123 -306l122 306h152zM112 803v112h100v-112h-100zM282 803v112h100v-112h-100z" />
    <glyph glyph-name="Zcaron" unicode="&#x17d;" horiz-adv-x="475" 
d="M460 0h-446v123l281 456h-261v132h419v-114l-286 -465h293v-132zM93 949h63l82 -103l81 103h64l-92 -171h-106z" />
    <glyph glyph-name="zcaron" unicode="&#x17e;" horiz-adv-x="421" 
d="M17 0v115l240 306h-220v116h354v-134l-223 -283h238v-120h-389zM66 778h63l82 -103l81 103h64l-92 -171h-106z" />
    <glyph glyph-name="florin" unicode="&#x192;" horiz-adv-x="581" 
d="M321 -22q-9 -103 -55.5 -143t-155.5 -40q-31 0 -48 1l11 125h22q60 0 78.5 20t23.5 80l26 302h-120l10 114h120l8 84q5 47 9.5 71.5t19 53t39.5 46.5q45 33 150 33q27 0 42 -1l-10 -124q-4 0 -12 0.5t-11 0.5q-57 0 -77 -22t-25 -81l-5 -61h128l-10 -114h-128z" />
    <glyph glyph-name="circumflex" unicode="&#x2c6;" 
d="M105 607l92 171h106l92 -171h-64l-81 103l-82 -103h-63z" />
    <glyph glyph-name="caron" unicode="&#x2c7;" 
d="M105 778h63l82 -103l81 103h64l-92 -171h-106z" />
    <glyph glyph-name="breve" unicode="&#x2d8;" 
d="M104 764h59q4 -69 87 -69q82 0 86 69h58q-4 -72 -39.5 -106.5t-104.5 -34.5q-136 0 -146 141z" />
    <glyph glyph-name="dotaccent" unicode="&#x2d9;" 
d="M198 628v117h105v-117h-105z" />
    <glyph glyph-name="ring" unicode="&#x2da;" 
d="M125 724q0 52 36.5 88.5t88.5 36.5q53 0 89.5 -36.5t36.5 -88.5q0 -53 -36.5 -90t-89.5 -37t-89 37t-36 90zM188 723q0 -26 18.5 -44t44.5 -18t44 18t18 44t-18 44.5t-44 18.5t-44.5 -18.5t-18.5 -44.5z" />
    <glyph glyph-name="ogonek" unicode="&#x2db;" 
d="M305 0q-64 -55 -64 -104q0 -21 10 -30t33 -9h46v-76h-47q-113 0 -113 88q0 62 92 131h43z" />
    <glyph glyph-name="tilde" unicode="&#x2dc;" 
d="M397 750q-11 -55 -34 -82.5t-63 -27.5q-19 0 -34 4l-41 12q-24 6 -31 6q-32 0 -42 -33h-49q19 106 94 106q17 0 41 -6l43 -12q16 -4 25 -4q33 0 42 37h49z" />
    <glyph glyph-name="hungarumlaut" unicode="&#x2dd;" 
d="M199 607h-51l65 170h92zM276 607l79 170h96l-124 -170h-51z" />
    <glyph glyph-name="endash" unicode="&#x2013;" 
d="M500 316v-95h-500v95h500z" />
    <glyph glyph-name="emdash" unicode="&#x2014;" horiz-adv-x="1000" 
d="M0 221v95h1000v-95h-1000z" />
    <glyph glyph-name="quoteleft" unicode="&#x2018;" horiz-adv-x="238" 
d="M61 462v128q0 69 29.5 101.5t95.5 33.5v-72q-41 -5 -41 -48v-8h41v-135h-125z" />
    <glyph glyph-name="quoteright" unicode="&#x2019;" horiz-adv-x="238" 
d="M186 711v-128q0 -69 -29.5 -101.5t-95.5 -33.5v72q23 3 32.5 14t9.5 34v8h-42v135h125z" />
    <glyph glyph-name="quotesinglbase" unicode="&#x201a;" horiz-adv-x="238" 
d="M186 134v-127q0 -69 -29.5 -101.5t-95.5 -33.5v72q23 3 32.5 14.5t9.5 34.5v7h-42v134h125z" />
    <glyph glyph-name="quotedblleft" unicode="&#x201c;" horiz-adv-x="424" 
d="M61 462v128q0 69 29.5 101.5t95.5 33.5v-72q-41 -5 -41 -48v-8h41v-135h-125zM246 462v128q0 69 29.5 101.5t95.5 33.5v-72q-41 -5 -41 -48v-8h41v-135h-125z" />
    <glyph glyph-name="quotedblright" unicode="&#x201d;" horiz-adv-x="424" 
d="M371 711v-128q0 -69 -29.5 -101.5t-95.5 -33.5v72q22 3 32 14.5t10 34.5v7h-42v135h125zM186 711v-128q0 -69 -29.5 -101.5t-95.5 -33.5v72q23 3 32.5 14.5t9.5 34.5v7h-42v135h125z" />
    <glyph glyph-name="quotedblbase" unicode="&#x201e;" horiz-adv-x="424" 
d="M352 134v-127q0 -69 -29.5 -101.5t-95.5 -33.5v72q41 5 41 48v8h-41v134h125zM167 134v-127q0 -69 -29.5 -101.5t-95.5 -33.5v72q41 5 41 48v8h-41v134h125z" />
    <glyph glyph-name="dagger" unicode="&#x2020;" 
d="M192 -114v523h-163v92h163v210h116v-210h163v-92h-163v-523h-116z" />
    <glyph glyph-name="daggerdbl" unicode="&#x2021;" 
d="M192 -113v183h-163v92h163v271h-163v93h163v185h116v-185h163v-93h-163v-271h163v-92h-163v-183h-116z" />
    <glyph glyph-name="bullet" unicode="&#x2022;" horiz-adv-x="590" 
d="M150 372q0 60 42.5 102t102.5 42q59 0 101.5 -42t42.5 -102q0 -59 -42.5 -102t-102.5 -43t-102 42.5t-42 102.5z" />
    <glyph glyph-name="ellipsis" unicode="&#x2026;" horiz-adv-x="1000" 
d="M229 0h-125v134h125v-134zM562 0h-125v134h125v-134zM896 0h-125v134h125v-134z" />
    <glyph glyph-name="perthousand" unicode="&#x2030;" horiz-adv-x="1294" 
d="M590 725h79l-380 -740h-79zM997 161q0 -35 23.5 -58.5t57.5 -23.5t58 23.5t24 58.5t-24 58.5t-58 23.5t-57.5 -23.5t-23.5 -58.5zM903 161q0 72 52 124q51 51 123 51q73 0 124 -51q52 -52 52 -124t-52 -124q-51 -51 -124 -51q-72 0 -123 51q-52 52 -52 124zM44 550
q0 72 52 124q51 51 123 51q73 0 124 -51q52 -52 52 -124t-52 -124q-51 -51 -124 -51q-72 0 -123 51q-52 52 -52 124zM137 550q0 -34 23.5 -57.5t58.5 -23.5t58.5 23.5t23.5 57.5t-23.5 58t-58.5 24t-58.5 -24t-23.5 -58zM575 161q0 -35 23.5 -58.5t58.5 -23.5t58.5 23.5
t23.5 58.5t-23.5 58.5t-58.5 23.5t-58.5 -23.5t-23.5 -58.5zM482 161q0 73 51 124t124 51t124 -51t51 -124t-51 -124t-124 -51t-124 51t-51 124z" />
    <glyph glyph-name="guilsinglleft" unicode="&#x2039;" horiz-adv-x="354" 
d="M280 425l-120 -157l120 -156h-97l-121 156l121 157h97z" />
    <glyph glyph-name="guilsinglright" unicode="&#x203a;" horiz-adv-x="354" 
d="M74 425h97l121 -157l-121 -156h-97l120 156z" />
    <glyph glyph-name="fraction" unicode="&#x2044;" horiz-adv-x="167" 
d="M262 725h71l-427 -740h-73z" />
    <glyph glyph-name="trademark" unicode="&#x2122;" horiz-adv-x="833" 
d="M110 713h228v-46h-82v-219h-63v219h-83v46zM395 713h83l69 -176l65 176h83v-265h-56v209l-78 -209h-29l-81 209v-209h-56v265z" />
    <glyph glyph-name="minus" unicode="&#x2212;" horiz-adv-x="833" 
d="M124 340h585v-83h-585v83z" />
    <glyph glyph-name="fi" unicode="&#xfb01;" horiz-adv-x="516" 
d="M291 537v-111h-90v-426h-121v426h-64v111h60v15q0 168 189 168q4 0 12.5 -0.5t13.5 -0.5v-112h-9q-42 0 -60.5 -13.5t-18.5 -46.5v-10h88zM461 592h-123v119h123v-119zM338 0v537h123v-537h-123z" />
    <glyph glyph-name="fl" unicode="&#xfb02;" horiz-adv-x="516" 
d="M291 537v-111h-90v-426h-121v426h-64v111h60v15q0 168 189 168q4 0 12.5 -0.5t13.5 -0.5v-112h-9q-42 0 -60.5 -13.5t-18.5 -46.5v-10h88zM461 0h-123v711h123v-711z" />
    </font>
</defs>
</svg>
