<?xml version="1.0" standalone="no"?>
<!DOCTYPE svg PUBLIC "-//W3C//DTD SVG 1.1//EN" "http://www.w3.org/Graphics/SVG/1.1/DTD/svg11.dtd" >
<svg xmlns="http://www.w3.org/2000/svg">
<metadata>Generated by IcoMoon</metadata>
<defs>
<font id="FeastWatson-Icons" horiz-adv-x="1024">
<font-face units-per-em="1024" ascent="960" descent="-64" />
<missing-glyph horiz-adv-x="1024" />
<glyph unicode="&#x20;" horiz-adv-x="512" d="" />
<glyph unicode="&#xe900;" glyph-name="arrow-down-triangle" d="M0 927.522h1024l-512.019-959.045-511.981 959.045z" />
<glyph unicode="&#xe901;" glyph-name="facebook" d="M1002.517 960h-981.035c-11.858 0-21.483-9.624-21.483-21.483v-981.024c0-11.858 9.624-21.483 21.483-21.483h521.221v342.164h-110.002c-9.506 0-17.208 7.702-17.208 17.208v138.713c0 9.506 7.702 17.218 17.208 17.218h110.012v95.737c0 126.146 79.432 207.651 202.355 207.651l109.432-0.172c9.485-0.011 17.186-7.712 17.186-17.208v-128.799c0-9.506-7.702-17.208-17.208-17.208l-73.718-0.032c-50.796 0-60.098-19.807-60.098-58.809v-81.161h128.67c4.565 0 8.937-1.815 12.17-5.048 3.222-3.233 5.038-7.605 5.038-12.17l-0.043-138.724c0-9.506-7.702-17.218-17.208-17.218h-128.638v-342.153h281.852c11.858 0 21.483 9.624 21.483 21.483v981.035c0.011 11.869-9.603 21.483-21.472 21.483z" />
<glyph unicode="&#xe902;" glyph-name="filter" d="M65.14 863.593h911.959l-340.466-354.361v-309.198l-218.87-126.807v429.056l-352.623 361.31zM451.636 519.654v-382.155l147.651 88.59v291.827l290.089 309.198h-731.303l293.562-307.461z" />
<glyph unicode="&#xe903;" glyph-name="heart" d="M512-7.031c-14.578 0-28.633 5.281-39.586 14.875-41.367 36.172-81.25 70.164-116.438 100.148l-0.18 0.156c-103.164 87.914-192.25 163.836-254.234 238.625-69.289 83.609-101.563 162.883-101.563 249.484 0 84.141 28.852 161.766 81.234 218.586 53.008 57.492 125.742 89.156 204.828 89.156 59.109 0 113.242-18.688 160.891-55.539 24.047-18.602 45.844-41.367 65.047-67.922 19.211 26.555 41 49.32 65.055 67.922 47.648 36.852 101.781 55.539 160.891 55.539 79.078 0 151.82-31.664 204.828-89.156 52.383-56.82 81.227-134.445 81.227-218.586 0-86.602-32.266-165.875-101.555-249.477-61.984-74.797-151.063-150.711-254.211-238.617-35.25-30.031-75.195-64.078-116.656-100.336-10.945-9.578-25.008-14.859-39.578-14.859zM286.063 844.016c-62.133 0-119.211-24.797-160.734-69.828-42.141-45.711-65.352-108.898-65.352-177.93 0-72.836 27.070-137.977 87.766-211.211 58.664-70.789 145.922-145.148 246.953-231.25l0.188-0.156c35.32-30.102 75.359-64.227 117.031-100.664 41.922 36.508 82.023 70.688 117.414 100.836 101.023 86.102 188.273 160.445 246.938 231.234 60.688 73.234 87.758 138.375 87.758 211.211 0 69.031-23.211 132.219-65.352 177.93-41.516 45.031-98.602 69.828-160.727 69.828-45.516 0-87.305-14.469-124.203-43-32.883-25.438-55.789-57.594-69.219-80.094-6.906-11.57-19.063-18.477-32.523-18.477s-25.617 6.906-32.523 18.477c-13.422 22.5-36.328 54.656-69.219 80.094-36.898 28.531-78.688 43-124.195 43z" />
<glyph unicode="&#xe904;" glyph-name="instagram" d="M1022.998 658.941c-2.399 54.409-11.198 91.815-23.802 124.227-13.003 34.405-33.006 65.208-59.215 90.815-25.607 26.005-56.613 46.212-90.619 59.012-32.6 12.604-69.811 21.403-124.22 23.802-54.815 2.602-72.217 3.204-211.244 3.204s-156.429-0.602-211.041-3.001c-54.409-2.399-91.815-11.205-124.22-23.802-34.413-13.003-65.216-33.006-90.822-59.215-26.005-25.607-46.204-56.613-59.012-90.619-12.604-32.608-21.403-69.811-23.802-124.22-2.602-54.815-3.204-72.217-3.204-211.244s0.602-156.429 3.001-211.041c2.399-54.409 11.205-91.815 23.809-124.227 13.003-34.405 33.202-65.208 59.207-90.815 25.607-26.005 56.613-46.212 90.619-59.012 32.608-12.604 69.811-21.403 124.227-23.802 54.604-2.407 72.014-3.001 211.041-3.001s156.429 0.594 211.041 3.001c54.409 2.399 91.815 11.198 124.22 23.802 68.818 26.607 123.227 81.016 149.834 149.826 12.596 32.608 21.403 69.818 23.802 124.227 2.399 54.612 3.001 72.014 3.001 211.041s-0.203 156.429-2.602 211.041zM930.785 240.86c-2.204-50.010-10.604-77.015-17.605-95.019-17.206-44.61-52.612-80.016-97.222-97.222-18.004-7.001-45.204-15.401-95.019-17.597-54.011-2.407-70.209-3.001-206.837-3.001s-153.030 0.594-206.845 3.001c-50.010 2.196-77.015 10.596-95.019 17.597-22.2 8.205-42.407 21.207-58.808 38.211-17.003 16.605-30.006 36.609-38.211 58.808-7.001 18.004-15.401 45.212-17.597 95.019-2.407 54.011-3.001 70.217-3.001 206.845s0.594 153.030 3.001 206.837c2.196 50.010 10.596 77.015 17.597 95.019 8.205 22.207 21.207 42.407 38.414 58.816 16.597 17.003 36.601 30.006 58.808 38.203 18.004 7.001 45.212 15.401 95.019 17.605 54.011 2.399 70.217 3.001 206.837 3.001 136.831 0 153.030-0.602 206.845-3.001 50.010-2.204 77.015-10.604 95.019-17.605 22.2-8.197 42.407-21.199 58.808-38.203 17.003-16.605 30.006-36.609 38.211-58.816 7.001-18.004 15.401-45.204 17.605-95.019 2.399-54.011 3.001-70.209 3.001-206.837s-0.602-152.631-3.001-206.642zM513.899 710.951c-145.224 0-263.051-117.82-263.051-263.051s117.828-263.051 263.051-263.051c145.231 0 263.051 117.82 263.051 263.051s-117.82 263.051-263.051 263.051zM513.899 277.265c-94.214 0-170.635 76.413-170.635 170.635s76.421 170.635 170.635 170.635c94.222 0 170.635-76.413 170.635-170.635s-76.413-170.635-170.635-170.635zM848.769 721.352c0-33.913-27.498-61.41-61.418-61.41-33.913 0-61.41 27.498-61.41 61.41 0 33.921 27.498 61.41 61.41 61.41 33.921 0 61.418-27.49 61.418-61.41z" />
<glyph unicode="&#xe905;" glyph-name="left-arrow" d="M334.018 797.137c14.436 14.436 37.164 14.436 51.6 0 13.949-13.949 13.949-37.164 0-51.080l-261.641-261.641h863.38c20.126 0 36.643-15.997 36.643-36.123s-16.517-36.643-36.643-36.643h-863.38l261.641-261.153c13.949-14.436 13.949-37.684 0-51.6-14.436-14.436-37.164-14.436-51.6 0l-323.581 323.581c-13.949 13.949-13.949 37.164 0 51.080l323.581 323.581z" />
<glyph unicode="&#xe906;" glyph-name="pinterest" d="M512 960c-282.76 0-512-229.229-512-512s229.24-512 512-512 512 229.229 512 512-229.24 512-512 512zM570.915 277.937c-47.361 0-91.903 25.603-107.156 54.673 0 0-25.477-101.038-30.83-120.533-18.992-68.93-74.859-137.881-79.207-143.528-3.027-3.928-9.721-2.703-10.413 2.514-1.184 8.779-15.452 95.737 1.33 166.658 8.391 35.617 56.391 238.993 56.391 238.993s-13.975 28.002-13.975 69.402c0 65.002 37.671 113.525 84.581 113.525 39.881 0 59.135-29.95 59.135-65.85 0-40.101-25.519-100.064-38.687-155.627-11.010-46.523 23.308-84.476 69.192-84.476 83.104 0 139.034 106.726 139.034 233.2 0 96.104-64.698 168.072-182.466 168.072-133.010 0-215.957-99.215-215.957-210.059 0-38.194 11.293-65.169 28.955-86.006 8.098-9.585 9.25-13.44 6.306-24.44-2.127-8.077-6.914-27.499-8.946-35.177-2.923-11.125-11.911-15.085-21.978-10.989-61.241 25.006-89.798 92.113-89.798 167.548 0 124.588 105.061 273.982 313.454 273.982 167.454 0 277.669-121.162 277.669-251.249 0.010-172.095-95.664-300.632-236.636-300.632z" />
<glyph unicode="&#xe907;" glyph-name="right-arrow" d="M689.55 797.181c-13.95 14.438-37.168 14.438-51.606 0-13.95-13.95-13.95-37.168 0-51.086l261.674-261.674h-863.49c-20.129-0.033-36.128-16.032-36.128-36.16s15.999-36.648 36.128-36.648h863.49l-261.674-261.187c-13.95-14.438-13.95-37.689 0-51.606 14.438-14.438 37.689-14.438 51.606 0l323.622 323.622c14.438 13.95 14.438 37.168 0 51.086l-323.622 323.654z" />
<glyph unicode="&#xe908;" glyph-name="arrow-left-circle" horiz-adv-x="791" d="M191.92 443.152c-5.494-4.286-5.494-11.437 0-15.734l106.649-86.331 21.142 14.651-84.587 68.346h328.527v22.425h-328.527l83.943 67.952-20.194 15.28-106.952-86.589zM395.636 829.652c-216.421 0-393.493-176.4-393.493-392.001s177.072-391.999 393.493-391.999 393.494 176.4 393.494 391.999-177.073 392.001-393.494 392.001zM394.786 76.925c-198.246 0-360.081 162.706-360.081 362.020s161.835 362.020 360.081 362.020 360.081-162.706 360.081-362.020-161.833-362.020-360.081-362.020z" />
<glyph unicode="&#xe909;" glyph-name="arrow-right-circle" horiz-adv-x="791" d="M492.4 537.846l-20.194-15.28 83.943-67.952h-328.527v-22.425h328.527l-84.587-68.346 21.142-14.651 106.649 86.331c5.494 4.296 5.494 11.448 0 15.734l-106.952 86.589zM2.142 445.759c0-215.6 177.073-391.999 393.494-391.999s393.494 176.4 393.494 391.999-177.073 392.001-393.494 392.001-393.494-176.4-393.494-392.001zM36.405 447.054c0 199.314 161.835 362.020 360.081 362.020s360.081-162.706 360.081-362.020-161.835-362.020-360.081-362.020-360.081 162.705-360.081 362.020z" />
<glyph unicode="&#xe90a;" glyph-name="chevron-left" d="M337.6 448l417.6 440c17.6 17.6 17.6 43.2 0 59.2s-43.2 17.6-59.2 0l-417.6-443.2c-30.4-30.4-30.4-81.6 0-110.4l417.6-443.2c8-8 20.8-12.8 30.4-12.8 8 0 20.8 4.8 30.4 12.8 17.6 17.6 17.6 43.2 0 59.2l-419.2 438.4z" />
<glyph unicode="&#xe90b;" glyph-name="chevron-right" d="M748.8 504l-419.2 443.2c-17.6 17.6-43.2 17.6-59.2 0-17.6-17.6-17.6-43.2 0-59.2l414.4-440-419.2-440c-17.6-17.6-17.6-43.2 0-59.2 8-8 17.6-12.8 30.4-12.8s20.8 4.8 30.4 12.8l417.6 443.2c33.6 30.4 33.6 81.6 4.8 112z" />
<glyph unicode="&#xe90c;" glyph-name="circle-plus" d="M683.2 491.2v0h-128v128c0 25.6-17.6 43.2-43.2 43.2v0c-25.6 0-43.2-17.6-43.2-43.2v-128h-128c-25.6 0-43.2-17.6-43.2-43.2s17.6-43.2 43.2-43.2v0h128v-128c0-25.6 17.6-43.2 43.2-43.2v0c25.6 0 43.2 20.8 43.2 43.2v128h128c25.6 0 43.2 17.6 43.2 43.2-1.6 25.6-17.6 43.2-43.2 43.2zM512 960c-281.6 0-512-230.4-512-512s230.4-512 512-512 512 230.4 512 512-230.4 512-512 512zM512 20.8c-235.2 0-427.2 192-427.2 427.2s192 427.2 427.2 427.2 427.2-192 427.2-427.2-192-427.2-427.2-427.2z" />
<glyph unicode="&#xe90d;" glyph-name="close" d="M566.4 448l318.4 318.4c16 16 16 38.4 0 54.4s-38.4 16-54.4 0l-318.4-318.4-320 316.8c-14.4 16-38.4 16-52.8 0s-16-38.4 0-54.4l318.4-316.8-318.4-318.4c-16-16-16-38.4 0-54.4 8-6.4 16-11.2 27.2-11.2s19.2 3.2 27.2 11.2l320 318.4 320-316.8c8-6.4 19.2-11.2 27.2-11.2s19.2 3.2 27.2 11.2c16 16 16 38.4 0 54.4l-321.6 316.8z" />
<glyph unicode="&#xe90e;" glyph-name="menu" d="M980.8 491.2h-937.6c-25.6 0-43.2-17.6-43.2-43.2s17.6-43.2 43.2-43.2h939.2c25.6 0 43.2 17.6 43.2 43.2-1.6 25.6-19.2 43.2-44.8 43.2zM980.8 192h-937.6c-25.6 0-43.2-17.6-43.2-43.2s17.6-43.2 43.2-43.2h939.2c25.6 0 43.2 17.6 43.2 43.2-1.6 25.6-19.2 43.2-44.8 43.2zM43.2 704h939.2c25.6 0 43.2 17.6 43.2 43.2s-17.6 43.2-43.2 43.2h-939.2c-25.6 0-43.2-17.6-43.2-43.2s17.6-43.2 43.2-43.2z" />
<glyph unicode="&#xe90f;" glyph-name="search-alt" d="M1006.4 56l-272 220.8c115.2 158.4 97.6 379.2-43.2 520-76.8 78.4-179.2 120-286.4 120s-208-41.6-284.8-118.4-120-179.2-120-286.4 43.2-209.6 120-286.4c81.6-81.6 184-120 286.4-120 97.6 0 196.8 33.6 273.6 107.2l276.8-225.6c8-8 17.6-8 25.6-8 12.8 0 25.6 4.8 33.6 17.6 12.8 16 12.8 41.6-9.6 59.2zM404.8 192c-84.8 0-166.4 33.6-225.6 94.4-59.2 59.2-94.4 140.8-94.4 225.6s33.6 166.4 94.4 225.6 140.8 94.4 225.6 94.4 166.4-33.6 225.6-94.4 94.4-140.8 94.4-225.6-33.6-166.4-94.4-225.6c-59.2-60.8-139.2-94.4-225.6-94.4z" />
<glyph unicode="&#xe910;" glyph-name="shopping-card" d="M810.667 704h-85.333c0 119.467-93.867 213.333-213.333 213.333s-213.333-93.867-213.333-213.333h-85.333c-46.933 0-85.333-38.4-85.333-85.333v-512c0-46.933 38.4-85.333 85.333-85.333h597.333c46.933 0 85.333 38.4 85.333 85.333v512c0 46.933-38.4 85.333-85.333 85.333zM512 832c72.533 0 128-55.467 128-128h-256c0 72.533 55.467 128 128 128zM810.667 106.667h-597.333v512h597.333v-512zM512 448c-72.533 0-128 55.467-128 128h-85.333c0-119.467 93.867-213.333 213.333-213.333s213.333 93.867 213.333 213.333h-85.333c0-72.533-55.467-128-128-128z" />
<glyph unicode="&#xe911;" glyph-name="minus" d="M980.8 404.8h-937.6c-25.6 0-43.2 17.6-43.2 43.2s17.6 43.2 43.2 43.2h939.2c25.6 0 43.2-17.6 43.2-43.2-1.6-25.6-19.2-43.2-44.8-43.2z" />
<glyph unicode="&#xe912;" glyph-name="plus" d="M977.6 491.2h-424v425.6c0 25.6-17.6 43.2-43.2 43.2s-43.2-17.6-43.2-43.2v-427.2h-424c-25.6 1.6-43.2-16-43.2-41.6s17.6-43.2 43.2-43.2h425.6v-427.2c0-25.6 17.6-43.2 43.2-43.2s43.2 17.6 43.2 43.2v428.8h425.6c25.6 0 43.2 17.6 43.2 43.2-3.2 24-20.8 41.6-46.4 41.6z" />
<glyph unicode="&#xe913;" glyph-name="chevron-down" d="M512 190.4c-20.8 0-38.4 8-56 20.8l-443.2 417.6c-17.6 17.6-17.6 43.2 0 59.2 17.6 17.6 43.2 17.6 59.2 0l440-412.8 440 417.6c17.6 17.6 43.2 17.6 59.2 0 17.6-17.6 17.6-43.2 0-59.2l-443.2-417.6c-17.6-22.4-35.2-25.6-56-25.6z" />
<glyph unicode="&#xe914;" glyph-name="chevron-up" d="M43.2 192c-12.8 0-20.8 4.8-30.4 12.8-17.6 17.6-17.6 43.2 0 59.2l443.2 417.6c30.4 30.4 81.6 30.4 110.4 0l443.2-417.6c17.6-17.6 17.6-43.2 0-59.2-17.6-17.6-43.2-17.6-59.2 0l-438.4 412.8-440-417.6c-8-4.8-16-8-28.8-8z" />
<glyph unicode="&#xe915;" glyph-name="youtube" d="M1003.2 694.4c-11.2 44.8-46.4 78.4-91.2 91.2-80 20.8-400 20.8-400 20.8s-320 0-400-20.8c-44.8-11.2-78.4-46.4-91.2-91.2-20.8-80-20.8-246.4-20.8-246.4s0-166.4 20.8-246.4c11.2-44.8 46.4-78.4 91.2-91.2 80-20.8 400-20.8 400-20.8s320 0 400 20.8c44.8 11.2 78.4 46.4 91.2 91.2 20.8 80 20.8 246.4 20.8 246.4s0 166.4-20.8 246.4zM409.6 294.4v307.2l265.6-153.6-265.6-153.6z" />
<glyph unicode="&#xe916;" glyph-name="safety-download-sheet" horiz-adv-x="791" d="M339.824 593.024h351.677v-30.6h-351.677v30.6zM415.354 440.566h276.148v-31.677h-276.148v31.677zM293.711 299.96h397.792v-29.307h-397.792v29.307zM599.703 875.744v-172.39c0 0 6.034-31.893 38.788-33.616h113.778c0 0-144.808 224.97-152.566 206.006zM170.020 736.97c0 0-0.431 119.812 0 133.172s19.394 48.381 71.111 48.381 298.667 0 298.667 0h50.424c0 0 33.616-11.634 56.889-41.644s116.364-152.838 134.465-207.141v-530.101c0 0 1.293-46.545-62.061-47.838s-497.778 0-497.778 0-45.253 3.879-51.717 56.889v111.192l33.186-0.431-1.723-113.778c0 0 2.586-26.721 36.202-26.721l486.141 3.448c0 0 29.307-5.172 28.444 47.408v468.901l-119.812-0.862c0 0-62.923 12.067-64.646 74.128v172.391l-319.784 0.862c0 0-47.408 2.586-44.822-31.030l-1.723-118.087-31.462 0.861zM129.077 669.737v-184.242h-62.491l117.657-144.808 122.182 144.808-61.414-0.646 0.646 184.889h-116.58zM98.047 700.768h178.424v-183.596h95.677l-185.643-223.246-186.505 224.109h99.771l-1.725 182.734z" />
<glyph unicode="&#xe917;" glyph-name="bucket" horiz-adv-x="960" d="M810.104 660.023h-29.981v29.981c0 0.081 0 0.177 0 0.273 0 82.852-67.165 150.017-150.017 150.017-50.417 0-95.025-24.871-122.225-63.013l-0.31-0.458c-8.297 2.021-17.823 3.181-27.62 3.181-14.376 0-28.169-2.497-40.969-7.080l0.848 0.265c-33.253 40.799-83.506 66.646-139.796 66.646-99.333 0-179.868-80.489-179.941-179.805v-0.007h-30.037c-16.565-0.032-29.981-13.468-29.981-30.037 0 0 0 0 0 0v0-119.98c0-16.558 13.423-29.981 29.981-29.981h33.104l4.429-40.088c-52.523-51.103-98.232-116.402-117.879-185.222-19.192-66.946-9.71-124.011 26.687-160.408 34.807-34.807 84.378-41.507 132.926-33.047l4.997-45.425c5.118-45.234 43.165-80.062 89.347-80.062 0.030 0 0.059 0 0.089 0h372.597c0.027 0 0.058 0 0.090 0 46.193 0 84.252 34.823 89.36 79.649l0.038 0.413 51.103 463.963h33.104c0.102-0.001 0.221-0.002 0.342-0.002 16.558 0 29.981 13.423 29.981 29.981 0 0.081 0 0.161-0.001 0.241v-0.012 119.98c0 0 0 0.001 0 0.001 0 16.589-13.448 30.037-30.037 30.037-0.080 0-0.16 0-0.239-0.001h0.012zM480.089 720.041c0.008 0 0.018 0 0.028 0 16.526 0 31.48-6.73 42.27-17.599l0.004-0.004c5.505-5.951 13.355-9.664 22.072-9.664 16.589 0 30.037 13.448 30.037 30.037 0 8.731-3.725 16.592-9.673 22.081l-0.021 0.019c-1.136 1.136-2.328 2.214-3.52 3.293 16.622 19.49 41.202 31.769 68.649 31.769 49.706 0 90.007-40.271 90.056-89.965v-29.986h-299.807c0 0 0 0 0 0 0 33.107 26.806 59.953 59.898 60.018h0.006zM300.091 780.002c35.755-0.070 67.84-15.724 89.833-40.53l0.109-0.125c-18.612-20.937-29.981-48.673-29.981-79.064 0-0.151 0-0.302 0.001-0.453v0.023-149.847c0-0.066 0.001-0.144 0.001-0.222 0-16.922-13.219-30.757-29.895-31.742l-0.087-0.004c-16.768 1.018-29.981 14.866-29.981 31.799 0 0.059 0 0.119 0 0.178v-0.009 119.98c0 16.589-13.448 30.037-30.037 30.037v0h-89.999c0.097 66.244 53.788 119.915 120.030 119.98h0.006zM78.813 136.666c-20.044 19.987-24.189 56.782-11.356 101.469 11.64 40.769 35.716 83.583 68.933 123.216l26.46-240.357c-36.681-7.041-66.718-1.363-84.037 15.672zM120.093 539.816v60.189h119.98v-60.189zM666.162 22.478c-1.715-15.048-14.376-26.631-29.742-26.631-0.024 0-0.048 0-0.072 0h-372.597c-0.020 0-0.044 0-0.068 0-15.366 0-28.027 11.582-29.729 26.493l-0.013 0.138-6.132 55.703c96.529 38.782 188.458 126.737 235.587 219.688h46.731c16.558 0 29.981 13.423 29.981 29.981s-13.423 29.981-29.981 29.981v0h-120.093c-16.558 0-29.981-13.423-29.981-29.981s13.423-29.981 29.981-29.981v0h4.486c-39.747-63.595-104.421-124.92-173.581-157.342l-37.419 339.497h61.551c11.886-36.279 45.438-62.019 85.002-62.019s73.116 25.74 84.823 61.388l0.179 0.631h301.51zM780.123 539.816h-359.939v60.189h360.052zM870.122 960c-0.017 0-0.037 0-0.057 0-49.705 0-89.999-40.294-89.999-89.999s40.294-89.999 89.999-89.999c49.705 0 89.999 40.294 89.999 89.999v0c-0.032 49.672-40.275 89.934-89.936 89.999h-0.006zM870.122 840.020c-16.558 0-29.981 13.423-29.981 29.981s13.423 29.981 29.981 29.981c16.558 0 29.981-13.423 29.981-29.981v0c-0.032-16.545-13.436-29.948-29.978-29.981h-0.003z" />
<glyph unicode="&#xe919;" glyph-name="brush" d="M1015.049 531.373c-5.444 5.409-12.947 8.753-21.231 8.753s-15.786-3.343-21.232-8.754l0.002 0.002-284.833-288.85-381.518 381.289 288.793 284.546c6.045 5.51 9.824 13.417 9.824 22.206 0 16.574-13.436 30.010-30.010 30.010-8.646 0-16.439-3.657-21.915-9.508l-0.016-0.017c-714.895-704.796 62.028 61.683-395.289-390.699-27.213-27.146-44.048-64.683-44.048-106.153s16.836-79.007 44.045-106.15l63.58-63.58-195.091-195.091c-16.273-16.28-26.338-38.768-26.338-63.606 0-49.69 40.282-89.972 89.972-89.972 24.852 0 47.351 10.076 63.634 26.366l195.092 195.092 63.749-63.692c27.139-27.226 64.679-44.072 106.153-44.072s79.013 16.846 106.149 44.068l0.004 0.004c87.217 87.217 39.477 38.502 391.043 395.289 5.302 5.408 8.574 12.823 8.574 21.002 0 8.435-3.48 16.058-9.083 21.51l-0.007 0.007zM454.563 136.026l-84.807 84.865c-5.438 5.423-12.943 8.776-21.231 8.776s-15.793-3.353-21.231-8.777l-216.149-216.149c-5.324-4.899-12.458-7.903-20.294-7.903-16.574 0-30.010 13.436-30.010 30.010 0 7.865 3.025 15.023 7.976 20.374l-0.018-0.020 216.092 216.15c5.42 5.429 8.771 12.924 8.771 21.202s-3.352 15.773-8.772 21.202v0l-84.865 84.865c-16.297 16.31-26.377 38.836-26.377 63.715 0 14.089 3.232 27.423 8.996 39.301l-0.235-0.536 374.633-374.69c-11.339-5.521-24.669-8.749-38.753-8.749-24.881 0-47.409 10.074-63.728 26.366l0.001-0.001zM603.062 157.257l-381.863 381.863 42.748 42.174 381.576-381.576zM754.028 780c49.684-0.065 89.939-40.341 89.972-90.026v-0.003c-0.018-0.392-0.029-0.85-0.029-1.312 0-16.574 13.436-30.010 30.010-30.010s30.010 13.436 30.010 30.010c0 0.461-0.010 0.92-0.031 1.377l0.002-0.065c0.033 49.708 40.32 89.996 90.026 90.029h0.003c16.574 0 30.010 13.436 30.010 30.010s-13.436 30.010-30.010 30.010v0c-49.675 0.065-89.931 40.301-90.029 89.962v0.009c0.018 0.392 0.029 0.85 0.029 1.312 0 16.574-13.436 30.010-30.010 30.010s-30.010-13.436-30.010-30.010c0-0.461 0.010-0.92 0.031-1.377l-0.002 0.065c-0.098-49.651-40.321-89.874-89.962-89.972h-0.009c-16.574 0-30.010-13.436-30.010-30.010s13.436-30.010 30.010-30.010v0zM874.009 840.076c8.661-11.498 18.569-21.406 29.688-29.793l0.379-0.274c-11.482-8.696-21.388-18.62-29.791-29.743l-0.276-0.381c-8.697 11.503-18.621 21.427-29.745 29.849l-0.379 0.275c11.504 8.679 21.428 18.585 29.851 29.691l0.273 0.376zM595.201 771.163c-5.425 5.451-12.934 8.824-21.231 8.824s-15.805-3.373-21.229-8.823l-119.982-119.982c-5.183-5.385-8.376-12.719-8.376-20.798 0-16.574 13.436-30.010 30.010-30.010 8.094 0 15.439 3.204 20.837 8.413l119.972 119.972c5.42 5.429 8.771 12.924 8.771 21.202s-3.352 15.773-8.772 21.202v0zM792.759 531.201l-120.039-120.039c-4.899-5.324-7.903-12.458-7.903-20.294 0-16.574 13.436-30.010 30.010-30.010 7.865 0 15.023 3.025 20.374 7.976l-0.020-0.018 119.981 119.981c5.964 5.502 9.686 13.356 9.686 22.080 0 16.574-13.436 30.010-30.010 30.010-8.724 0-16.578-3.722-22.061-9.665l-0.019-0.021zM552.74 488.797c5.438-5.423 12.943-8.776 21.231-8.776s15.793 3.353 21.231 8.777l119.98 119.98c5.183 5.385 8.376 12.719 8.376 20.798 0 16.574-13.436 30.010-30.010 30.010-8.094 0-15.439-3.204-20.837-8.413l-119.972-119.972c-5.42-5.429-8.771-12.924-8.771-21.202s3.352-15.773 8.772-21.202v0z" />
<glyph unicode="&#xe91b;" glyph-name="location-solid" d="M780.8 854.8c-149.6 139.2-392 139.2-541.6 0-134.8-125.4-150-361.4-35.6-503.4l306.4-411.4 306.4 411.6c114.2 141.8 99.2 377.8-35.6 503.2zM511.6 325.4c-141.2 0-255.8 114.6-255.8 255.8s114.6 255.8 255.8 255.8c141.2 0 255.8-114.6 255.8-255.8s-114.6-255.8-255.8-255.8z" />
<glyph unicode="&#xe91c;" glyph-name="mouse-cursor" d="M1004.8 150.4l-269 269 192 110.8c15 8.6 23.8 25.2 22.4 42.4-1.2 17.2-12.2 32.4-28.4 38.8l-855.8 341.4c-16.8 6.8-36 2.8-48.8-10s-16.8-32-10-48.8l341.4-856c6.4-16 21.4-27 38.8-28.4 17.2-1.2 33.8 7.4 42.4 22.4l110.8 192 269-269c8.4-8.4 20-13.2 32-13.2s23.4 4.8 32 13.2l131.2 131.2c17.6 17.8 17.6 46.4 0 64.2z" />
<glyph unicode="&#xe91d;" glyph-name="phone" d="M856.2 352.2c-22 23-48.6 35.2-76.6 35.2s-54.6-12-77.6-35l-71.6-71.4c-5.8 3.2-11.8 6.2-17.4 9-8.2 4-15.8 8-22.4 12-67.2 42.6-128.2 98.2-186.8 170.2-28.4 35.8-47.4 66-61.2 96.6 18.6 17 35.8 34.8 52.6 51.8 6.4 6.4 12.8 13 19 19.2 47.6 47.6 47.6 109.4 0 157l-62 62c-7 7-14.2 14.2-21.2 21.6-13.6 14-28 28.6-42.6 42.2-22.2 21.8-48.6 33.4-76.2 33.4s-54.4-11.6-77.2-33.4c-0.2-0.2-0.2-0.2-0.4-0.4l-77.2-77.8c-29-29-45.6-64.4-49.2-105.6-5.4-66.2 14-128 29-168.4 36.8-99.2 91.6-191 173.6-289.6 99.4-118.6 219-212.4 355.6-278.4 52.2-24.8 121.8-54 199.6-59 4.8-0.2 9.8-0.4 14.2-0.4 52.4 0 91.6 20.2 131 56.2 0.2 0.4 34.8 30.4 70.2 71.4 22.4 23.4 34.2 50.6 34.2 78.6 0 28.2-12 55.2-35 77.8l-124.4 125.2z" />
<glyph unicode="&#xe91e;" glyph-name="refresh" horiz-adv-x="791" d="M791.027 505.212v346.182l-116.218-116.218c-71.463 71.708-170.125 116.218-279.42 116.218-218.589 0-395.141-177.047-395.141-395.638s176.553-395.638 395.141-395.638c356.449 3.235 382.284 363.96 382.284 363.96h-102.864c0 0-31.577-267.634-279.418-265.051-163.942 0-296.727 132.785-296.727 296.727s132.785 296.727 296.727 296.727c81.848 0 155.289-34.124 208.945-87.782l-159.492-159.489 346.182 0.001z" />
<glyph unicode="&#xe91f;" glyph-name="can" horiz-adv-x="791" d="M322.802 782.438l14.653 12.497c0 0 8.62 10.343 28.875-8.62l171.529-173.467c0 0 63.354-15.515 106.020-40.727 0 0 79.515-47.838 104.727-106.667 0 0 44.606-74.343 32.323-177.778 0 0-5.818-125.414-64-115.071 0 0-38.141 11.636-37.495 100.848 0 0 5.818 109.899-35.556 132.525 0 0-1.939 3.232-8.404-5.172l-219.152-218.505c0 0-76.283-91.798-171.96-28.444 0 0-173.683 167.865-192 188.121s-26.259 38.697-30.045 46.5c-3.786 7.803-17.776 68.289 7.003 95.11s88.982 96.288 88.982 96.288-76.283 74.99-8.404 142.869c0 0 57.966 61.198 212.903 59.691zM142.869 605.091l142.869 140.283c0 0-252.768-18.747-142.869-140.283zM595.394 558.545l71.111-71.111c0 0 33.616-25.212 9.697-45.899l-7.758-6.465h-1.939c0 0 43.96-40.081 43.96-114.424 0 0 10.99-248.242 37.495-3.879 0 0 21.98 183.596-152.566 241.778zM374.949 545.616c11.183 12.474 21.887 14.786 30.829 12.905 6.501-1.368 29.454-5.632 25.503-38.339-5.262-24.504-26.828-23.79-28.037-23.82-28.133-0.685-32.173 17.577-32.173 17.577-124.121-7.758-221.737 44.606-221.737 44.606l-71.111-70.465c-63.354-72.404 0-124.768 0-124.768l181.657-181.657c71.758-58.828 140.283 29.737 140.283 29.737l246.949 248.889-272.162 270.869c-34.263 36.202-32.323 21.98-32.323 21.98l-18.747-17.455-149.98-149.333c31.677-36.202 201.051-40.727 201.051-40.727z" />
<glyph unicode="&#xe920;" glyph-name="spray" horiz-adv-x="791" d="M373.98 809.697l7.758-32.323 107.636 24.566-9.051 33.616zM517.818 842.99l8.081-31.354 53.333 11.313-9.374 33.293zM607.354 864.323l9.051-32.97 53.010 13.899-7.434 32.97zM696.242 885.98l8.404-31.192 35.232 7.273-7.758 32zM382.061 769.939l-8.081-33.939 107.313-26.182 8.081 34.909zM521.374 787.717h71.111v-34.586h-71.111v34.586zM629.333 787.717h52.687v-34.586h-52.687v34.586zM718.061 787.717h35.394v-34.586h-35.394v34.586zM526.222 735.030l-8.404-32.97 53.010-13.576 8.404 33.616zM616.081 714.020l-8.727-32.646 52.364-13.899 9.697 33.293zM704.646 690.747l-6.788-31.354 33.616-9.697 6.788 32.323zM174.545 825.105h116.364c0 0 16.378-4.741 16.378-22.842s0-87.057 0-87.057 66.802-13.792 88.35-93.091c0 0 18.101-9.481 18.101-23.489s0-524.283 0-524.283-9.697-71.111-65.939-72.404-232.081 0-232.081 0-56.889 15.515-60.768 71.111c0 0-0.646 512.862 0 525.576s11.152 23.273 21.98 23.273c0 0 10.505 91.798 87.273 92.444l-0.97 88.242c0 0-2.909 16.915 11.313 22.519zM197.818 787.717v-73.697h72.404v21.010h-17.239v34.909h17.239v17.778h-72.404zM90.936 63.138c0.862-16.378 28.444-28.014 28.444-28.014h228.848c12.067 0 29.924 20.316 29.737 28.875s-0.431 19.824-0.431 19.824l0.431 508.552h-287.030c0 0.003-0.861-512.86 0-529.237zM355.556 626.855c-6.034 45.683-57.751 54.303-57.751 54.303h-117.226c-60.336-3.447-68.093-54.303-68.093-54.303h243.071zM127.138 519.111h34.479v-71.111h-34.479v71.111zM127.138 410.505h34.479v-303.408h-34.479v303.408z" />
<glyph unicode="&#xe921;" glyph-name="arrow-down-circle" horiz-adv-x="791" d="M391.43 244.278c4.286-5.494 11.437-5.494 15.734 0l86.331 106.649-14.651 21.142-68.346-84.587v328.527h-22.425v-328.527l-67.952 83.943-15.28-20.194 86.589-106.952zM4.93 447.995c0-216.421 176.4-393.493 392.001-393.493s391.999 177.072 391.999 393.493-176.4 393.494-391.999 393.494c-215.6 0-392.001-177.073-392.001-393.494zM757.657 447.144c0-198.246-162.706-360.081-362.020-360.081s-362.020 161.835-362.020 360.081 162.706 360.081 362.020 360.081c199.314 0 362.020-161.833 362.020-360.081z" />
</font>
</defs>
</svg>
